<?xml version="1.0" encoding="UTF-8"?>
<svg viewBox="521.316 311.936 877.086 451.751" style="enable-background:new 0 0 1920 1080;" xmlns="http://www.w3.org/2000/svg">
  <defs>
    <style type="text/css">
	.st0{fill:#87F5DD;}
	.st1{fill:#541F5C;}
</style>
  </defs>
  <g style="" transform="matrix(1, 0, 0, 1, 1.1368683772161603e-13, 0)">
    <g>
      <path d="M574.73,719.11c-7.4,0-13.88-0.73-19.42-2.17s-10.2-4.1-13.95-7.95c-3.75-3.85-6.55-9.47-8.4-16.88 c-1.85-7.4-2.77-17.05-2.77-28.95c0-12,0.95-21.72,2.85-29.18c1.9-7.45,4.73-13.15,8.48-17.1c3.75-3.95,8.4-6.67,13.95-8.17 c5.55-1.5,11.97-2.25,19.28-2.25c7.5,0,14.05,0.75,19.65,2.25c5.6,1.5,10.25,4.23,13.95,8.17c3.7,3.95,6.47,9.65,8.33,17.1 c1.85,7.45,2.78,17.18,2.78,29.18c0,11.9-0.93,21.55-2.78,28.95c-1.85,7.4-4.65,13.03-8.4,16.88c-3.75,3.85-8.4,6.5-13.95,7.95 S582.23,719.11,574.73,719.11z M574.73,702.46c4.9,0,9.02-0.53,12.38-1.58c3.35-1.05,6.02-2.95,8.03-5.7 c2-2.75,3.45-6.7,4.35-11.85c0.9-5.15,1.35-11.87,1.35-20.17c0-8.8-0.48-15.83-1.42-21.08c-0.95-5.25-2.43-9.25-4.42-12 c-2-2.75-4.65-4.6-7.95-5.55c-3.3-0.95-7.4-1.43-12.3-1.43c-4.6,0-8.55,0.48-11.85,1.43c-3.3,0.95-5.98,2.8-8.03,5.55 c-2.05,2.75-3.58,6.75-4.58,12c-1,5.25-1.5,12.28-1.5,21.08c0,8.3,0.42,15.03,1.28,20.17c0.85,5.15,2.27,9.1,4.27,11.85 c2,2.75,4.67,4.65,8.03,5.7C565.71,701.94,569.83,702.46,574.73,702.46z" style="fill: rgb(255, 255, 255);"/>
      <path d="M636.38,753.76V637.81h15.45l3.15,7.95c1.9-1.5,4.1-2.95,6.6-4.35c2.5-1.4,5.2-2.52,8.1-3.38c2.9-0.85,5.9-1.28,9-1.28 c5.1,0,9.47,1,13.12,3c3.65,2,6.62,4.83,8.92,8.47c2.3,3.65,3.97,8,5.03,13.05c1.05,5.05,1.57,10.63,1.57,16.72 c0,8.8-0.93,16.28-2.77,22.42c-1.85,6.15-4.85,10.83-9,14.03c-4.15,3.2-9.78,4.8-16.88,4.8c-4,0-8.08-0.55-12.23-1.65 c-4.15-1.1-7.98-2.55-11.47-4.35v40.5H636.38z M672.83,703.96c2.9,0,5.55-0.77,7.95-2.33c2.4-1.55,4.32-4.17,5.78-7.88 c1.45-3.7,2.17-8.95,2.17-15.75c0-6.5-0.7-11.7-2.1-15.6c-1.4-3.9-3.28-6.65-5.62-8.25c-2.35-1.6-5.03-2.4-8.03-2.4 c-3.7,0-7.05,0.58-10.05,1.72c-3,1.15-5.65,2.33-7.95,3.53v42c2.6,1.5,5.45,2.7,8.55,3.6 C666.63,703.51,669.73,703.96,672.83,703.96z" style="fill: rgb(255, 255, 255);"/>
      <path d="M756.68,718.96c-8.7,0-15.62-1.2-20.77-3.6c-5.15-2.4-8.88-6.57-11.17-12.52c-2.3-5.95-3.45-14.22-3.45-24.83 c0-10.8,1.1-19.17,3.3-25.12c2.2-5.95,5.85-10.12,10.95-12.53c5.1-2.4,12-3.6,20.7-3.6c7.7,0,13.88,0.78,18.52,2.33 c4.65,1.55,8.05,4.3,10.2,8.25c2.15,3.95,3.22,9.52,3.22,16.72c0,5.1-1,9.18-3,12.23c-2,3.05-4.88,5.23-8.62,6.52 c-3.75,1.3-8.17,1.95-13.27,1.95h-23.55c0.2,5,0.87,8.98,2.02,11.92c1.15,2.95,3.25,5.08,6.3,6.38c3.05,1.3,7.52,1.95,13.43,1.95 h24.3v10.95c-4.1,0.8-8.43,1.5-12.98,2.1C768.25,718.66,762.88,718.96,756.68,718.96z M739.58,673.51h21.9 c3.5,0,6.07-0.67,7.72-2.03c1.65-1.35,2.47-3.82,2.47-7.42c0-3.5-0.5-6.25-1.5-8.25c-1-2-2.65-3.42-4.95-4.27 c-2.3-0.85-5.3-1.28-9-1.28c-4.2,0-7.5,0.65-9.9,1.95c-2.4,1.3-4.12,3.63-5.17,6.97C740.11,662.54,739.58,667.31,739.58,673.51z" style="fill: rgb(255, 255, 255);"/>
      <path d="M804.68,718.21v-80.4h15.15l3.45,8.4c3.3-2.5,7.32-4.75,12.08-6.75c4.75-2,9.67-3,14.78-3c6.3,0,11.25,1.27,14.85,3.83 c3.6,2.55,6.17,5.98,7.73,10.27c1.55,4.3,2.32,9,2.32,14.1v53.55h-18.6v-51.3c0-2.9-0.55-5.35-1.65-7.35 c-1.1-2-2.62-3.55-4.57-4.65c-1.95-1.1-4.33-1.65-7.12-1.65c-2.6,0-5.03,0.25-7.28,0.75c-2.25,0.5-4.38,1.25-6.38,2.25 c-2,1-4.05,2.2-6.15,3.6v58.35H804.68z" style="fill: rgb(255, 255, 255);"/>
      <path d="M933.83,718.21v-110.7h45.75c3.5,0,7.05,0.43,10.65,1.28c3.6,0.85,6.92,2.53,9.98,5.02c3.05,2.5,5.5,6.2,7.35,11.1 c1.85,4.9,2.78,11.45,2.78,19.65c0,8.2-0.95,14.8-2.85,19.8c-1.9,5-4.38,8.83-7.42,11.48c-3.05,2.65-6.35,4.45-9.9,5.4 c-3.55,0.95-6.97,1.43-10.27,1.43c-1.7,0-3.83-0.08-6.38-0.23c-2.55-0.15-5.2-0.35-7.95-0.6c-2.75-0.25-5.3-0.5-7.65-0.75 c-2.35-0.25-4.23-0.47-5.62-0.67v37.8H933.83z M952.28,665.86h24.9c2.9,0,5.45-0.67,7.65-2.02c2.2-1.35,3.9-3.55,5.1-6.6 c1.2-3.05,1.8-7.22,1.8-12.52c0-5.2-0.63-9.3-1.88-12.3c-1.25-3-2.9-5.12-4.95-6.38c-2.05-1.25-4.42-1.88-7.12-1.88h-25.5V665.86z " style="fill: rgb(255, 255, 255);"/>
      <path d="M1049.02,718.51c-5.3,0-9.73-0.9-13.28-2.7c-3.55-1.8-6.2-4.6-7.95-8.4c-1.75-3.8-2.62-8.85-2.62-15.15v-88.5h18.6v85.95 c0,3.6,0.38,6.4,1.12,8.4c0.75,2,1.82,3.43,3.22,4.28c1.4,0.85,3.1,1.42,5.1,1.72l6.75,0.9v13.5H1049.02z" style="fill: rgb(255, 255, 255);"/>
      <path d="M1103.92,718.96c-8.7,0-15.63-1.2-20.78-3.6c-5.15-2.4-8.88-6.57-11.17-12.52c-2.3-5.95-3.45-14.22-3.45-24.83 c0-10.8,1.1-19.17,3.3-25.12c2.2-5.95,5.85-10.12,10.95-12.53c5.1-2.4,12-3.6,20.7-3.6c7.7,0,13.88,0.78,18.53,2.33 c4.65,1.55,8.05,4.3,10.2,8.25c2.15,3.95,3.22,9.52,3.22,16.72c0,5.1-1,9.18-3,12.23c-2,3.05-4.88,5.23-8.62,6.52 c-3.75,1.3-8.17,1.95-13.28,1.95h-23.55c0.2,5,0.87,8.98,2.03,11.92c1.15,2.95,3.25,5.08,6.3,6.38c3.05,1.3,7.52,1.95,13.42,1.95 h24.3v10.95c-4.1,0.8-8.43,1.5-12.97,2.1C1115.5,718.66,1110.12,718.96,1103.92,718.96z M1086.83,673.51h21.9 c3.5,0,6.08-0.67,7.73-2.03c1.65-1.35,2.47-3.82,2.47-7.42c0-3.5-0.5-6.25-1.5-8.25c-1-2-2.65-3.42-4.95-4.27 c-2.3-0.85-5.3-1.28-9-1.28c-4.2,0-7.5,0.65-9.9,1.95c-2.4,1.3-4.12,3.63-5.18,6.97C1087.35,662.54,1086.83,667.31,1086.83,673.51 z" style="fill: rgb(255, 255, 255);"/>
      <path d="M1178.17,719.11c-6.3,0-11.6-1.37-15.9-4.12c-4.3-2.75-7.53-7.1-9.67-13.05c-2.15-5.95-3.23-13.67-3.23-23.17 c0-10,0.95-18.08,2.85-24.22c1.9-6.15,5.07-10.65,9.52-13.5c4.45-2.85,10.43-4.28,17.93-4.28c4,0,7.95,0.4,11.85,1.2 c3.9,0.8,7.3,1.75,10.2,2.85v-37.05h18.6v114.45h-15.45l-3.15-7.8c-1.6,1.5-3.73,2.9-6.38,4.2c-2.65,1.3-5.45,2.38-8.4,3.23 C1184,718.69,1181.07,719.11,1178.17,719.11z M1184.47,704.11c3.6,0,6.85-0.57,9.75-1.72c2.9-1.15,5.4-2.33,7.5-3.53v-44.7 c-2.5-0.9-5.05-1.7-7.65-2.4c-2.6-0.7-5.45-1.05-8.55-1.05c-4.2,0-7.6,0.78-10.2,2.33c-2.6,1.55-4.48,4.27-5.62,8.17 c-1.15,3.9-1.72,9.45-1.72,16.65c0,6.7,0.55,11.98,1.65,15.83c1.1,3.85,2.87,6.55,5.33,8.1 C1177.4,703.34,1180.57,704.11,1184.47,704.11z" style="fill: rgb(255, 255, 255);"/>
      <path d="M1259.47,755.26c-5.1,0-9.65-0.73-13.65-2.17c-4-1.45-7.12-3.65-9.38-6.6c-2.25-2.95-3.38-6.52-3.38-10.72v-2.85 c0-4.4,1.25-8.13,3.75-11.18c2.5-3.05,5.7-5.37,9.6-6.97c3.9-1.6,7.95-2.4,12.15-2.4l5.4,6.15c-2.5,0-4.75,0.4-6.75,1.2 c-2,0.8-3.6,2-4.8,3.6c-1.2,1.6-1.8,3.6-1.8,6v2.4c0,3.6,1.2,6.22,3.6,7.88c2.4,1.65,5.8,2.47,10.2,2.47h16.35 c4.6,0,8.22-0.88,10.88-2.62c2.65-1.75,3.97-4.42,3.97-8.02v-2.55c0-2.2-0.45-4.05-1.35-5.55s-2.35-2.68-4.35-3.52 c-2-0.85-4.7-1.28-8.1-1.28h-20.1c-8,0-14.03-1.55-18.08-4.65c-4.05-3.1-6.08-7-6.08-11.7c0-4,1.17-7.3,3.53-9.9 c2.35-2.6,5.62-4.35,9.83-5.25c-3.4-1.6-6.08-3.65-8.03-6.15c-1.95-2.5-3.33-5.2-4.12-8.1c-0.8-2.9-1.2-5.85-1.2-8.85 c0-6.1,1.25-11.07,3.75-14.93c2.5-3.85,6.15-6.7,10.95-8.55c4.8-1.85,10.75-2.77,17.85-2.77h43.35v10.35l-14.25,1.95 c1,1,2.07,2.2,3.22,3.6c1.15,1.4,2.12,3.25,2.92,5.55c0.8,2.3,1.2,5.3,1.2,9c0,4.5-0.93,8.6-2.77,12.3 c-1.85,3.7-4.88,6.65-9.08,8.85c-4.2,2.2-9.85,3.3-16.95,3.3h-13.65c-3.2,0-5.8,0.5-7.8,1.5c-2,1-3,2.7-3,5.1c0,2,0.8,3.4,2.4,4.2 c1.6,0.8,3.3,1.2,5.1,1.2h23.85c6.1,0,11.27,0.8,15.52,2.4c4.25,1.6,7.47,4.1,9.67,7.5c2.2,3.4,3.3,7.9,3.3,13.5v2.55 c0,7.7-2.48,13.75-7.43,18.15c-4.95,4.4-12.52,6.6-22.72,6.6H1259.47z M1267.12,678.61h8.7c3.7,0,6.57-0.57,8.62-1.72 c2.05-1.15,3.45-2.7,4.2-4.65c0.75-1.95,1.12-4.12,1.12-6.52c0-3.4-0.53-6.12-1.58-8.17c-1.05-2.05-2.55-3.53-4.5-4.43 c-1.95-0.9-4.33-1.35-7.12-1.35h-8.4c-4.5,0-7.93,1-10.28,3c-2.35,2-3.53,5.4-3.53,10.2s1.1,8.28,3.3,10.42 C1259.87,677.54,1263.02,678.61,1267.12,678.61z" style="fill: rgb(255, 255, 255);"/>
      <path d="M1358.77,718.96c-8.7,0-15.63-1.2-20.78-3.6c-5.15-2.4-8.88-6.57-11.17-12.52c-2.3-5.95-3.45-14.22-3.45-24.83 c0-10.8,1.1-19.17,3.3-25.12c2.2-5.95,5.85-10.12,10.95-12.53c5.1-2.4,12-3.6,20.7-3.6c7.7,0,13.88,0.78,18.53,2.33 c4.65,1.55,8.05,4.3,10.2,8.25c2.15,3.95,3.22,9.52,3.22,16.72c0,5.1-1,9.18-3,12.23c-2,3.05-4.88,5.23-8.62,6.52 c-3.75,1.3-8.17,1.95-13.28,1.95h-23.55c0.2,5,0.87,8.98,2.03,11.92c1.15,2.95,3.25,5.08,6.3,6.38c3.05,1.3,7.52,1.95,13.42,1.95 h24.3v10.95c-4.1,0.8-8.43,1.5-12.97,2.1C1370.34,718.66,1364.97,718.96,1358.77,718.96z M1341.67,673.51h21.9 c3.5,0,6.08-0.67,7.73-2.03c1.65-1.35,2.47-3.82,2.47-7.42c0-3.5-0.5-6.25-1.5-8.25c-1-2-2.65-3.42-4.95-4.27 c-2.3-0.85-5.3-1.28-9-1.28c-4.2,0-7.5,0.65-9.9,1.95c-2.4,1.3-4.12,3.63-5.18,6.97C1342.19,662.54,1341.67,667.31,1341.67,673.51 z" style="fill: rgb(255, 255, 255);"/>
    </g>
  </g>
  <g transform="matrix(1, 0, 0, 1, 1.1368683772161603e-13, 0)">
    <path class="st0" d="M920.47,400.69c2.47-7.43,5.39-13.26,8.75-17.5c3.36-4.24,7.46-7.21,12.29-8.93 c4.83-1.71,10.61-2.49,17.32-2.34c6.9,0.16,12.45,0.96,16.64,2.4c4.18,1.44,7.2,3.91,9.04,7.4c1.84,3.5,2.68,8.6,2.53,15.31 c-0.09,4.03-0.6,9.39-1.52,16.08c-0.33,2.39-0.69,4.84-1.07,7.3l56.33,1.81c0.15-1.17,0.31-2.34,0.45-3.51 c0.95-8.04,1.5-15.03,1.63-20.97c0.36-15.53-1.32-28.19-5.03-37.96c-3.71-9.77-8.96-17.38-15.74-22.81 c-6.78-5.43-14.8-9.21-24.06-11.35c-9.26-2.13-19.35-3.32-30.28-3.57c-16.3-0.37-30.49,0.98-42.55,4.06 c-12.07,3.08-22.45,8.36-31.16,15.83c-8.71,7.48-15.95,17.62-21.71,30.44c-5.34,11.88-9.7,26.58-13.11,44.02l56.63,1.82 C917.29,411.49,918.82,405.64,920.47,400.69z"/>
    <path class="st0" d="M1005.42,420.39c-0.68,4.43-1.44,8.97-2.29,13.63c-1.56,9.18-3.42,17.19-5.59,24.05 c-2.17,6.86-4.89,12.55-8.16,17.08c-3.27,4.53-7.38,7.89-12.32,10.08c-4.94,2.19-10.97,3.2-18.06,3.04 c-7.1-0.16-12.83-1.01-17.21-2.55c-4.38-1.54-7.49-4.01-9.33-7.41c-1.84-3.4-2.7-7.98-2.56-13.73c0.09-3.83,0.59-9,1.51-15.51 c0.91-6.5,2.03-13.19,3.34-20.07c0.67-3.84,1.36-7.43,2.08-10.81l-56.63-1.82c-0.27,1.38-0.55,2.74-0.8,4.16 c-1.52,7.64-2.76,15.53-3.71,23.66c-0.96,8.14-1.51,15.46-1.66,21.98c-0.33,14.58,1.26,26.51,4.79,35.8 c3.53,9.29,8.69,16.56,15.47,21.8c6.79,5.24,14.86,8.93,24.21,11.06c9.35,2.13,19.59,3.33,30.72,3.58 c16.3,0.37,30.53-0.69,42.67-3.19c12.15-2.5,22.52-7.2,31.12-14.11c8.6-6.9,15.78-16.71,21.54-29.44 c5.76-12.72,10.4-29.12,13.94-49.19c1.3-6.69,2.38-13.46,3.26-20.29L1005.42,420.39z"/>
  </g>
  <g transform="matrix(1, 0, 0, 1, 1.1368683772161603e-13, 0)">
    <path class="st1" d="M888,399.99c2.47-7.43,5.39-13.26,8.75-17.5c3.36-4.24,7.46-7.21,12.29-8.93c4.83-1.71,10.61-2.49,17.32-2.34 c6.9,0.16,12.45,0.96,16.64,2.4c4.19,1.44,7.2,3.91,9.04,7.4c1.84,3.5,2.68,8.6,2.53,15.31c-0.09,4.03-0.6,9.39-1.52,16.08 c-0.33,2.39-0.69,4.84-1.07,7.3l56.33,1.81c0.15-1.17,0.31-2.34,0.45-3.51c0.95-8.04,1.5-15.03,1.63-20.97 c0.36-15.53-1.32-28.19-5.03-37.96c-3.71-9.77-8.96-17.38-15.74-22.81c-6.78-5.43-14.8-9.21-24.06-11.35 c-9.26-2.13-19.35-3.32-30.28-3.57c-16.3-0.37-30.49,0.98-42.55,4.06c-12.07,3.08-22.45,8.36-31.16,15.83 c-8.71,7.48-15.95,17.62-21.71,30.44c-5.34,11.88-9.7,26.58-13.11,44.02l56.63,1.82C884.82,410.79,886.35,404.93,888,399.99z"/>
    <path class="st1" d="M972.95,419.69c-0.68,4.43-1.44,8.97-2.29,13.63c-1.56,9.18-3.42,17.19-5.59,24.05 c-2.17,6.86-4.89,12.55-8.16,17.08c-3.27,4.53-7.38,7.89-12.32,10.08c-4.94,2.19-10.97,3.2-18.06,3.04 c-7.1-0.16-12.83-1.01-17.21-2.55c-4.38-1.54-7.49-4.01-9.33-7.41c-1.84-3.4-2.7-7.98-2.56-13.73c0.09-3.83,0.59-9,1.51-15.51 c0.91-6.5,2.03-13.19,3.34-20.07c0.67-3.84,1.36-7.43,2.08-10.81l-56.63-1.82c-0.27,1.38-0.55,2.74-0.8,4.16 c-1.52,7.64-2.76,15.53-3.71,23.66c-0.96,8.14-1.51,15.46-1.66,21.98c-0.33,14.58,1.26,26.51,4.79,35.8 c3.53,9.29,8.69,16.56,15.47,21.8c6.79,5.24,14.86,8.93,24.21,11.06c9.35,2.13,19.59,3.33,30.72,3.58 c16.3,0.37,30.53-0.69,42.67-3.19c12.15-2.5,22.52-7.2,31.12-14.11c8.6-6.9,15.78-16.71,21.54-29.44 c5.76-12.72,10.4-29.12,13.94-49.19c1.3-6.69,2.38-13.46,3.26-20.29L972.95,419.69z"/>
  </g>
  <path d="M907,399.99c2.47-7.43,5.39-13.26,8.75-17.5c3.36-4.24,7.46-7.21,12.29-8.93c4.83-1.71,10.61-2.49,17.32-2.34 c6.9,0.16,12.45,0.96,16.64,2.4c4.19,1.44,7.2,3.91,9.04,7.4c1.84,3.5,2.68,8.6,2.53,15.31c-0.09,4.03-0.6,9.39-1.52,16.08 c-0.33,2.39-0.69,4.84-1.07,7.3l56.33,1.81c0.15-1.17,0.31-2.34,0.45-3.51c0.95-8.04,1.5-15.03,1.63-20.97 c0.36-15.53-1.32-28.19-5.03-37.96c-3.71-9.77-8.96-17.38-15.74-22.81c-6.78-5.43-14.8-9.21-24.06-11.35 c-9.26-2.13-19.35-3.32-30.28-3.57c-16.3-0.37-30.49,0.98-42.55,4.06c-12.07,3.08-22.45,8.36-31.16,15.83 c-8.71,7.48-15.95,17.62-21.71,30.44c-5.34,11.88-9.7,26.58-13.11,44.02l56.63,1.82C903.82,410.79,905.35,404.93,907,399.99z" transform="matrix(1, 0, 0, 1, 1.1368683772161603e-13, 0)"/>
  <path d="M988.95,419.69c-0.68,4.43-1.44,8.97-2.29,13.63c-1.56,9.18-3.42,17.19-5.59,24.05c-2.17,6.86-4.89,12.55-8.16,17.08 c-3.27,4.53-7.38,7.89-12.32,10.08c-4.94,2.19-10.97,3.2-18.06,3.04c-7.1-0.16-12.83-1.01-17.21-2.55 c-4.38-1.54-7.49-4.01-9.33-7.41c-1.84-3.4-2.7-7.98-2.56-13.73c0.09-3.83,0.59-9,1.51-15.51c0.91-6.5,2.03-13.19,3.34-20.07 c0.67-3.84,1.36-7.43,2.08-10.81l-56.63-1.82c-0.27,1.38-0.55,2.74-0.8,4.16c-1.52,7.64-2.76,15.53-3.71,23.66 c-0.96,8.14-1.51,15.46-1.66,21.98c-0.33,14.58,1.26,26.51,4.79,35.8c3.53,9.29,8.69,16.56,15.47,21.8 c6.79,5.24,14.86,8.93,24.21,11.06c9.35,2.13,19.59,3.33,30.72,3.58c16.3,0.37,30.53-0.69,42.67-3.19 c12.15-2.5,22.52-7.2,31.12-14.11c8.6-6.9,15.78-16.71,21.54-29.44c5.76-12.72,10.4-29.12,13.94-49.19 c1.3-6.69,2.38-13.46,3.26-20.29L988.95,419.69z" transform="matrix(1, 0, 0, 1, 1.1368683772161603e-13, 0)"/>
<script xmlns=""/></svg>