<svg width="182" height="76" viewBox="0 0 182 76" fill="none" xmlns="http://www.w3.org/2000/svg">
<path d="M19.6928 33.1993C20.0896 31.96 20.5578 30.9871 21.098 30.2792C21.6375 29.5712 22.2951 29.0758 23.0722 28.7892C23.8487 28.504 24.7757 28.3738 25.8539 28.3993C26.9624 28.4255 27.8534 28.5594 28.5261 28.7989C29.1981 29.0391 29.6821 29.4507 29.9782 30.0344C30.2727 30.6174 30.4089 31.4698 30.3837 32.5894C30.3685 33.2614 30.2872 34.1564 30.1395 35.273C30.0862 35.6726 30.0279 36.0797 29.9674 36.4914L39.0139 36.7929C39.0384 36.5976 39.0636 36.403 39.0859 36.207C39.2386 34.8659 39.3265 33.6992 39.3481 32.7076C39.4057 30.1153 39.1356 28.0041 38.5407 26.3727C37.945 24.742 37.1023 23.4735 36.0133 22.5665C34.9242 21.6602 33.6357 21.0294 32.149 20.6731C30.6617 20.3177 29.0411 20.1186 27.2858 20.0767C24.6676 20.0146 22.3894 20.2406 20.4534 20.754C18.5158 21.2681 16.8477 22.1489 15.449 23.3957C14.0495 24.6432 12.8877 26.336 11.9621 28.4756C11.1043 30.458 10.4035 32.9104 9.85681 35.8201L18.9516 36.1231C19.1821 35.0014 19.4284 34.024 19.6928 33.1993Z" fill="#87F5DD"/>
<path d="M33.336 36.4862C33.2265 37.2256 33.1048 37.9829 32.9687 38.7612C32.7188 40.2924 32.4198 41.6297 32.0712 42.774C31.7226 43.9182 31.2854 44.8686 30.7603 45.6245C30.2353 46.3803 29.5755 46.9409 28.7818 47.3061C27.988 47.6713 27.0207 47.8404 25.882 47.8134C24.7425 47.7865 23.8206 47.6443 23.1183 47.3876C22.4146 47.1309 21.9155 46.7186 21.6202 46.1513C21.3241 45.5848 21.1873 44.82 21.2089 43.8606C21.2233 43.2207 21.3033 42.3586 21.4509 41.2727C21.5978 40.1883 21.7772 39.071 21.9875 37.9238C22.0948 37.2839 22.2065 36.6845 22.3217 36.1202L13.2269 35.8171C13.1837 36.0476 13.139 36.2751 13.098 36.5116C12.8538 37.7868 12.655 39.1025 12.5023 40.4593C12.3489 41.8168 12.2603 43.0396 12.2365 44.127C12.1825 46.5592 12.4389 48.5498 13.0058 50.1005C13.5726 51.6511 14.4009 52.8634 15.4907 53.7375C16.5805 54.6124 17.8762 55.2275 19.3787 55.583C20.8805 55.9385 22.5248 56.1383 24.3111 56.1809C26.9285 56.243 29.2132 56.0649 31.1637 55.6481C33.1142 55.2313 34.7794 54.4462 36.1616 53.2937C37.5424 52.1427 38.6962 50.5046 39.6211 48.3815C40.5459 46.2591 41.2921 43.5223 41.8589 40.1741C42.0671 39.0583 42.2407 37.929 42.3833 36.7878L33.336 36.4862Z" fill="#87F5DD"/>
<path d="M14.4788 33.0826C14.8757 31.8433 15.3439 30.8704 15.8841 30.1625C16.4236 29.4545 17.0812 28.9591 17.8583 28.6725C18.6348 28.3873 19.5618 28.2571 20.64 28.2826C21.7485 28.3088 22.6395 28.4427 23.3122 28.6822C23.9842 28.9224 24.4682 29.334 24.7642 29.9177C25.0588 30.5007 25.195 31.3531 25.1697 32.4727C25.1546 33.1447 25.0732 34.0397 24.9256 35.1563C24.8723 35.5559 24.8139 35.963 24.7534 36.3747L33.8 36.6762C33.8245 36.4809 33.8497 36.2863 33.872 36.0903C34.0247 34.7492 34.1126 33.5825 34.1342 32.5909C34.1918 29.9986 33.9217 27.8874 33.3268 26.256C32.7311 24.6253 31.8884 23.3568 30.7993 22.4498C29.7103 21.5435 28.4217 20.9127 26.9351 20.5564C25.4478 20.201 23.8272 20.0019 22.0719 19.96C19.4537 19.8979 17.1755 20.1239 15.2394 20.6373C13.3019 21.1514 11.6338 22.0322 10.235 23.279C8.83555 24.5265 7.67376 26.2193 6.74822 28.3589C5.89038 30.3413 5.18957 32.7937 4.64288 35.7034L13.7377 36.0065C13.9682 34.8847 14.2145 33.9073 14.4788 33.0826Z" fill="#541F5C"/>
<path d="M28.1221 36.3686C28.0126 37.108 27.8909 37.8654 27.7548 38.6437C27.5048 40.1748 27.2059 41.5121 26.8573 42.6564C26.5087 43.8006 26.0715 44.7511 25.5464 45.5069C25.0213 46.2628 24.3616 46.8233 23.5679 47.1885C22.7741 47.5537 21.8068 47.7228 20.6681 47.6959C19.5286 47.669 18.6067 47.5268 17.9044 47.2701C17.2007 47.0134 16.7016 46.601 16.4062 46.0338C16.1102 45.4673 15.9734 44.7024 15.995 43.743C16.0094 43.1032 16.0893 42.2411 16.237 41.1552C16.3839 40.0708 16.5633 38.9535 16.7736 37.8062C16.8809 37.1664 16.9925 36.5669 17.1078 36.0027L8.01298 35.6996C7.96976 35.9301 7.92511 36.1576 7.88405 36.3941C7.63988 37.6693 7.44109 38.9849 7.28839 40.3417C7.13498 41.6992 7.04638 42.9221 7.02261 44.0094C6.96859 46.4416 7.22501 48.4323 7.79186 49.9829C8.35871 51.5335 9.18701 52.7459 10.2768 53.62C11.3665 54.4948 12.6623 55.11 14.1648 55.4654C15.6665 55.8209 17.3109 56.0207 19.0972 56.0634C21.7146 56.1255 23.9993 55.9474 25.9498 55.5305C27.9003 55.1137 29.5655 54.3287 30.9477 53.1762C32.3284 52.0252 33.4823 50.387 34.4071 48.2639C35.332 46.1415 36.0781 43.4048 36.645 40.0566C36.8532 38.9408 37.0267 37.8115 37.1694 36.6702L28.1221 36.3686Z" fill="#541F5C"/>
<path d="M17.5299 33.0826C17.9267 31.8433 18.3949 30.8704 18.9351 30.1625C19.4746 29.4545 20.1322 28.9591 20.9093 28.6725C21.6858 28.3873 22.6128 28.2571 23.691 28.2826C24.7995 28.3088 25.6905 28.4427 26.3632 28.6822C27.0352 28.9224 27.5192 29.334 27.8153 29.9177C28.1098 30.5007 28.246 31.3531 28.2208 32.4727C28.2056 33.1447 28.1243 34.0397 27.9766 35.1563C27.9233 35.5559 27.865 35.963 27.8045 36.3747L36.851 36.6762C36.8755 36.4809 36.9007 36.2863 36.923 36.0903C37.0757 34.7492 37.1636 33.5825 37.1852 32.5909C37.2428 29.9986 36.9727 27.8874 36.3778 26.256C35.7821 24.6253 34.9394 23.3568 33.8504 22.4498C32.7613 21.5435 31.4728 20.9127 29.9861 20.5564C28.4988 20.201 26.8782 20.0019 25.1229 19.96C22.5047 19.8979 20.2265 20.1239 18.2905 20.6373C16.3529 21.1514 14.6848 22.0322 13.2861 23.279C11.8866 24.5265 10.7248 26.2193 9.79924 28.3589C8.94141 30.3413 8.24059 32.7937 7.69391 35.7034L16.7887 36.0065C17.0192 34.8847 17.2662 33.9073 17.5299 33.0826Z" fill="#141316"/>
<path d="M30.6912 36.3686C30.5818 37.108 30.46 37.8654 30.3239 38.6437C30.074 40.1748 29.7751 41.5121 29.4265 42.6564C29.0779 43.8006 28.6407 44.7511 28.1156 45.5069C27.5905 46.2628 26.9307 46.8233 26.137 47.1885C25.3433 47.5537 24.376 47.7228 23.2372 47.6959C22.0978 47.669 21.1758 47.5268 20.4736 47.2701C19.7699 47.0134 19.2707 46.601 18.9754 46.0338C18.6794 45.4673 18.5425 44.7024 18.5641 43.743C18.5785 43.1032 18.6585 42.2411 18.8061 41.1552C18.9531 40.0708 19.1324 38.9535 19.3427 37.8062C19.4501 37.1664 19.5617 36.5669 19.6769 36.0027L10.5821 35.6996C10.5389 35.9301 10.4943 36.1576 10.4532 36.3941C10.209 37.6693 10.0102 38.9849 9.85755 40.3417C9.70413 41.6992 9.61554 42.9221 9.59177 44.0094C9.53775 46.4416 9.79417 48.4323 10.361 49.9829C10.9279 51.5335 11.7562 52.7459 12.8459 53.62C13.9357 54.4948 15.2315 55.11 16.7339 55.4654C18.2357 55.8209 19.8801 56.0207 21.6663 56.0634C24.2838 56.1255 26.5684 55.9474 28.5189 55.5305C30.4694 55.1137 32.1347 54.3287 33.5169 53.1762C34.8976 52.0252 36.0515 50.387 36.9763 48.2639C37.9011 46.1415 38.6473 43.4048 39.2142 40.0566C39.4223 38.9408 39.5959 37.8115 39.7385 36.6702L30.6912 36.3686Z" fill="#141316"/>
<path d="M172.545 46.0087C171.252 46.0087 170.219 45.8263 169.447 45.4615C168.689 45.0967 168.139 44.4659 167.798 43.5691C167.456 42.6571 167.285 41.3955 167.285 39.7843C167.285 38.1427 167.449 36.8735 167.775 35.9767C168.102 35.0647 168.645 34.4263 169.402 34.0615C170.16 33.6967 171.185 33.5143 172.478 33.5143C173.622 33.5143 174.535 33.6359 175.219 33.8791C175.917 34.1071 176.422 34.5251 176.734 35.1331C177.061 35.7259 177.225 36.5695 177.225 37.6639C177.225 38.4391 177.076 39.0623 176.779 39.5335C176.482 39.9895 176.051 40.3163 175.486 40.5139C174.937 40.7115 174.283 40.8103 173.525 40.8103H170.026C170.056 41.5703 170.153 42.1783 170.316 42.6343C170.494 43.0751 170.806 43.3943 171.252 43.5919C171.713 43.7895 172.381 43.8883 173.258 43.8883H176.868V45.5527C176.259 45.6743 175.613 45.7807 174.929 45.8719C174.261 45.9631 173.466 46.0087 172.545 46.0087ZM170.004 39.1003H173.258C173.778 39.1003 174.157 39.0015 174.394 38.8039C174.647 38.5911 174.773 38.2111 174.773 37.6639C174.773 37.1319 174.699 36.7139 174.55 36.4099C174.402 36.1059 174.157 35.8931 173.815 35.7715C173.473 35.6347 173.027 35.5663 172.478 35.5663C171.854 35.5663 171.363 35.6651 171.007 35.8627C170.65 36.0603 170.39 36.4175 170.227 36.9343C170.078 37.4359 170.004 38.1579 170.004 39.1003Z" fill="#F0EFF1"/>
<path d="M157.79 51.5263C157.032 51.5263 156.356 51.4123 155.762 51.1843C155.167 50.9715 154.699 50.6371 154.358 50.1811C154.031 49.7403 153.867 49.2007 153.867 48.5623V48.1291C153.867 47.4603 154.053 46.8903 154.424 46.4191C154.796 45.9631 155.271 45.6135 155.851 45.3703C156.43 45.1271 157.032 45.0055 157.656 45.0055L158.458 45.9403C158.087 45.9403 157.752 46.0011 157.455 46.1227C157.158 46.2443 156.92 46.4267 156.742 46.6699C156.564 46.9131 156.475 47.2171 156.475 47.5819V47.9467C156.475 48.4939 156.653 48.8891 157.01 49.1323C157.366 49.3907 157.871 49.5199 158.525 49.5199H160.954C161.638 49.5199 162.172 49.3831 162.559 49.1095C162.96 48.8511 163.16 48.4483 163.16 47.9011V47.5135C163.16 47.1791 163.094 46.8979 162.96 46.6699C162.826 46.4419 162.611 46.2595 162.314 46.1227C162.016 46.0011 161.615 45.9403 161.11 45.9403H158.124C156.935 45.9403 156.036 45.7047 155.427 45.2335C154.833 44.7623 154.536 44.1695 154.536 43.4551C154.536 42.8471 154.707 42.3455 155.048 41.9503C155.405 41.5551 155.895 41.2891 156.519 41.1523C156.014 40.9091 155.613 40.5975 155.316 40.2175C155.034 39.8375 154.833 39.4271 154.714 38.9863C154.595 38.5455 154.536 38.0971 154.536 37.6411C154.536 36.7139 154.722 35.9615 155.093 35.3839C155.464 34.7911 156.007 34.3579 156.72 34.0843C157.433 33.7955 158.317 33.6511 159.372 33.6511H165.812V35.2243L163.695 35.5207C163.844 35.6727 164 35.8551 164.163 36.0679C164.342 36.2807 164.49 36.5619 164.609 36.9115C164.728 37.2611 164.787 37.7171 164.787 38.2795C164.787 38.9635 164.646 39.5867 164.364 40.1491C164.096 40.7115 163.651 41.1599 163.027 41.4943C162.403 41.8287 161.563 41.9959 160.508 41.9959H158.48C158.005 41.9959 157.619 42.0719 157.322 42.2239C157.024 42.3759 156.876 42.6343 156.876 42.9991C156.876 43.3031 156.995 43.5159 157.232 43.6375C157.47 43.7591 157.723 43.8199 157.99 43.8199H161.534C162.44 43.8199 163.205 43.9415 163.829 44.1847C164.468 44.4279 164.951 44.8079 165.278 45.3247C165.604 45.8415 165.768 46.5255 165.768 47.3767V47.7643C165.768 48.9347 165.396 49.8543 164.654 50.5231C163.926 51.1919 162.804 51.5263 161.288 51.5263H157.79ZM158.926 39.8755H160.219C160.768 39.8755 161.192 39.7919 161.489 39.6247C161.801 39.4423 162.009 39.2067 162.113 38.9179C162.232 38.6139 162.291 38.2795 162.291 37.9147C162.291 37.3979 162.21 36.9875 162.046 36.6835C161.898 36.3643 161.675 36.1363 161.378 35.9995C161.095 35.8627 160.746 35.7943 160.33 35.7943H159.082C158.414 35.7943 157.901 35.9463 157.544 36.2503C157.203 36.5543 157.032 37.0711 157.032 37.8007C157.032 38.5303 157.195 39.0623 157.522 39.3967C157.849 39.7159 158.317 39.8755 158.926 39.8755Z" fill="#F0EFF1"/>
<path d="M145.709 46.0315C144.773 46.0315 143.986 45.8263 143.347 45.4159C142.708 44.9903 142.225 44.3291 141.898 43.4323C141.586 42.5203 141.43 41.3423 141.43 39.8983C141.43 38.3783 141.571 37.1547 141.854 36.2275C142.136 35.2851 142.604 34.6011 143.258 34.1755C143.926 33.7347 144.818 33.5143 145.932 33.5143C146.526 33.5143 147.113 33.5751 147.692 33.6967C148.272 33.8183 148.777 33.9627 149.208 34.1299V28.4983H151.971V45.8947H149.676L149.208 44.7091C148.97 44.9371 148.651 45.1499 148.25 45.3475C147.863 45.5451 147.447 45.7123 147.002 45.8491C146.571 45.9707 146.14 46.0315 145.709 46.0315ZM146.645 43.7515C147.18 43.7515 147.663 43.6679 148.094 43.5007C148.524 43.3183 148.896 43.1359 149.208 42.9535V36.1591C148.836 36.0223 148.458 35.9007 148.071 35.7943C147.685 35.6879 147.262 35.6347 146.801 35.6347C146.177 35.6347 145.672 35.7563 145.286 35.9995C144.899 36.2275 144.617 36.6379 144.439 37.2307C144.275 37.8235 144.194 38.6671 144.194 39.7615C144.194 40.7799 144.275 41.5855 144.439 42.1783C144.602 42.7559 144.862 43.1663 145.219 43.4095C145.59 43.6375 146.066 43.7515 146.645 43.7515Z" fill="#F0EFF1"/>
<path d="M134.676 46.0087C133.384 46.0087 132.351 45.8263 131.578 45.4615C130.821 45.0967 130.271 44.4659 129.929 43.5691C129.588 42.6571 129.417 41.3955 129.417 39.7843C129.417 38.1427 129.58 36.8735 129.907 35.9767C130.234 35.0647 130.776 34.4263 131.534 34.0615C132.292 33.6967 133.317 33.5143 134.609 33.5143C135.753 33.5143 136.667 33.6359 137.35 33.8791C138.049 34.1071 138.554 34.5251 138.866 35.1331C139.193 35.7259 139.356 36.5695 139.356 37.6639C139.356 38.4391 139.208 39.0623 138.91 39.5335C138.613 39.9895 138.182 40.3163 137.618 40.5139C137.068 40.7115 136.414 40.8103 135.657 40.8103H132.158C132.188 41.5703 132.284 42.1783 132.448 42.6343C132.626 43.0751 132.938 43.3943 133.384 43.5919C133.844 43.7895 134.513 43.8883 135.389 43.8883H139V45.5527C138.39 45.6743 137.744 45.7807 137.061 45.8719C136.392 45.9631 135.597 46.0087 134.676 46.0087ZM132.136 39.1003H135.389C135.909 39.1003 136.288 39.0015 136.526 38.8039C136.778 38.5911 136.905 38.2111 136.905 37.6639C136.905 37.1319 136.83 36.7139 136.682 36.4099C136.533 36.1059 136.288 35.8931 135.946 35.7715C135.605 35.6347 135.159 35.5663 134.609 35.5663C133.985 35.5663 133.495 35.6651 133.138 35.8627C132.782 36.0603 132.522 36.4175 132.358 36.9343C132.21 37.4359 132.136 38.1579 132.136 39.1003Z" fill="#F0EFF1"/>
<path d="M126.527 45.9403C125.74 45.9403 125.079 45.8035 124.544 45.5299C124.024 45.2563 123.63 44.8307 123.363 44.2531C123.11 43.6755 122.984 42.9079 122.984 41.9503V28.4983H125.747V41.5627C125.747 42.1099 125.799 42.5355 125.903 42.8395C126.022 43.1435 126.185 43.3639 126.393 43.5007C126.601 43.6223 126.854 43.7059 127.151 43.7515L128.154 43.8883V45.9403H126.527Z" fill="#F0EFF1"/>
<path d="M109.406 45.8946V29.0682H116.204C116.724 29.0682 117.251 29.1366 117.786 29.2734C118.321 29.395 118.811 29.6458 119.257 30.0258C119.717 30.4058 120.081 30.9682 120.349 31.713C120.631 32.4578 120.772 33.4534 120.772 34.6998C120.772 35.9462 120.631 36.9494 120.349 37.7094C120.066 38.4694 119.695 39.0546 119.234 39.465C118.789 39.8602 118.298 40.1338 117.764 40.2858C117.244 40.4226 116.738 40.491 116.248 40.491C115.996 40.491 115.676 40.4834 115.29 40.4682C114.918 40.4378 114.525 40.4074 114.109 40.377C113.708 40.3314 113.329 40.2934 112.972 40.263C112.63 40.2174 112.356 40.1794 112.148 40.149V45.8946H109.406ZM112.148 37.9374H115.847C116.278 37.9374 116.657 37.8386 116.984 37.641C117.31 37.4282 117.563 37.0938 117.741 36.6378C117.92 36.1666 118.009 35.5282 118.009 34.7226C118.009 33.9322 117.912 33.309 117.719 32.853C117.541 32.397 117.296 32.0778 116.984 31.8954C116.686 31.6978 116.337 31.599 115.936 31.599H112.148V37.9374Z" fill="#F0EFF1"/>
<path d="M96.0624 45.8947V33.6739H98.3132L98.8258 34.9507C99.3161 34.5707 99.9104 34.2288 100.609 33.9247C101.322 33.6207 102.057 33.4688 102.815 33.4688C103.751 33.4688 104.486 33.6663 105.021 34.0615C105.556 34.4415 105.935 34.9583 106.158 35.6119C106.396 36.2655 106.514 36.9799 106.514 37.7551V45.8947H103.751V38.0971C103.751 37.6563 103.669 37.2839 103.506 36.9799C103.342 36.6759 103.112 36.4403 102.815 36.2731C102.533 36.1059 102.184 36.0223 101.768 36.0223C101.381 36.0223 101.017 36.0603 100.676 36.1363C100.349 36.2123 100.037 36.3263 99.7395 36.4783C99.4424 36.6303 99.1378 36.8127 98.8258 37.0255V45.8947H96.0624Z" fill="#F0EFF1"/>
<path d="M88.9295 46.0087C87.637 46.0087 86.6044 45.8263 85.8318 45.4615C85.0741 45.0967 84.5244 44.4659 84.1827 43.5691C83.841 42.6571 83.6701 41.3955 83.6701 39.7843C83.6701 38.1427 83.8335 36.8735 84.1604 35.9767C84.4872 35.0647 85.0295 34.4263 85.7872 34.0615C86.545 33.6967 87.5701 33.5143 88.8627 33.5143C90.0067 33.5143 90.9204 33.6359 91.6038 33.8791C92.3021 34.1071 92.8072 34.5251 93.1192 35.1331C93.4461 35.7259 93.6095 36.5695 93.6095 37.6639C93.6095 38.4391 93.461 39.0623 93.1638 39.5335C92.8667 39.9895 92.4358 40.3163 91.8713 40.5139C91.3215 40.7115 90.6678 40.8103 89.9101 40.8103H86.4112C86.441 41.5703 86.5375 42.1783 86.701 42.6343C86.8792 43.0751 87.1912 43.3943 87.637 43.5919C88.0975 43.7895 88.7661 43.8883 89.6427 43.8883H93.253V45.5527C92.6438 45.6743 91.9975 45.7807 91.3141 45.8719C90.6455 45.9631 89.8507 46.0087 88.9295 46.0087ZM86.389 39.1003H89.6427C90.1627 39.1003 90.5415 39.0015 90.7793 38.8039C91.0318 38.5911 91.1581 38.2111 91.1581 37.6639C91.1581 37.1319 91.0838 36.7139 90.9353 36.4099C90.7867 36.1059 90.5415 35.8931 90.1998 35.7715C89.8581 35.6347 89.4124 35.5663 88.8627 35.5663C88.2387 35.5663 87.7484 35.6651 87.3918 35.8627C87.0352 36.0603 86.7752 36.4175 86.6118 36.9343C86.4632 37.4359 86.389 38.1579 86.389 39.1003Z" fill="#F0EFF1"/>
<path d="M71.0562 51.2983V33.6739H73.3516L73.8196 34.8823C74.1019 34.6543 74.4288 34.4339 74.8002 34.2211C75.1716 34.0083 75.5728 33.8411 76.0036 33.7195C76.4345 33.5827 76.8802 33.5143 77.3408 33.5143C78.0985 33.5143 78.7448 33.6663 79.2796 33.9703C79.8294 34.2743 80.2751 34.7075 80.6168 35.2699C80.9585 35.8171 81.2036 36.4783 81.3522 37.2535C81.5156 38.0135 81.5974 38.8571 81.5974 39.7843C81.5974 41.1219 81.4562 42.2619 81.1739 43.2043C80.9065 44.1315 80.4608 44.8383 79.8368 45.3247C79.2276 45.8111 78.3956 46.0543 77.3408 46.0543C76.7465 46.0543 76.1374 45.9707 75.5134 45.8035C74.9042 45.6363 74.3396 45.4159 73.8196 45.1423V51.2983H71.0562ZM76.4716 43.7287C76.9025 43.7287 77.2962 43.6147 77.6528 43.3867C78.0094 43.1435 78.2916 42.7407 78.4996 42.1783C78.7225 41.6159 78.8339 40.8179 78.8339 39.7843C78.8339 38.7963 78.7299 38.0059 78.5219 37.4131C78.3139 36.8203 78.0316 36.4023 77.6751 36.1591C77.3334 35.9159 76.9396 35.7943 76.4939 35.7943C75.9442 35.7943 75.4465 35.8855 75.0008 36.0679C74.5551 36.2351 74.1614 36.4099 73.8196 36.5923V42.9763C74.2059 43.2043 74.6294 43.3867 75.0899 43.5235C75.5505 43.6603 76.0111 43.7287 76.4716 43.7287Z" fill="#F0EFF1"/>
<path d="M61.8899 46.0315C60.7904 46.0315 59.8247 45.9251 58.9927 45.7123C58.1756 45.4843 57.4847 45.0815 56.9201 44.5039C56.3704 43.9111 55.9544 43.0523 55.6721 41.9275C55.4047 40.8027 55.271 39.3359 55.271 37.5271C55.271 35.7031 55.4121 34.2287 55.6944 33.1039C55.9767 31.9639 56.3927 31.0975 56.9424 30.5047C57.507 29.8967 58.1979 29.4787 59.015 29.2507C59.847 29.0227 60.8053 28.9087 61.8899 28.9087C63.0041 28.9087 63.9773 29.0227 64.8093 29.2507C65.6413 29.4787 66.3321 29.8967 66.8819 30.5047C67.4316 31.0975 67.8401 31.9639 68.1076 33.1039C68.3899 34.2287 68.531 35.7031 68.531 37.5271C68.531 39.3359 68.3899 40.8027 68.1076 41.9275C67.8401 43.0523 67.4241 43.9111 66.8596 44.5039C66.3099 45.0815 65.619 45.4843 64.787 45.7123C63.9699 45.9251 63.0041 46.0315 61.8899 46.0315ZM61.8899 43.5007C62.6179 43.5007 63.227 43.4247 63.7173 43.2727C64.2224 43.1055 64.6236 42.8167 64.9207 42.4063C65.2179 41.9807 65.4333 41.3803 65.567 40.6051C65.7007 39.8147 65.7676 38.7887 65.7676 37.5271C65.7676 36.1895 65.6933 35.1255 65.5447 34.3351C65.411 33.5295 65.1956 32.9215 64.8984 32.5111C64.6013 32.0855 64.2076 31.8043 63.7173 31.6675C63.227 31.5155 62.6179 31.4395 61.8899 31.4395C61.2064 31.4395 60.6196 31.5155 60.1293 31.6675C59.639 31.8043 59.2379 32.0855 58.9259 32.5111C58.6287 32.9215 58.4059 33.5295 58.2573 34.3351C58.1087 35.1255 58.0344 36.1895 58.0344 37.5271C58.0344 38.7887 58.0939 39.8147 58.2127 40.6051C58.3464 41.3803 58.5619 41.9807 58.859 42.4063C59.1561 42.8167 59.5499 43.1055 60.0401 43.2727C60.5453 43.4247 61.1619 43.5007 61.8899 43.5007Z" fill="#F0EFF1"/>
</svg>
