<svg width="182" height="76" viewBox="0 0 182 76" fill="none" xmlns="http://www.w3.org/2000/svg">
<path d="M19.6928 33.1995C20.0896 31.9602 20.5578 30.9874 21.098 30.2794C21.6375 29.5715 22.2951 29.076 23.0722 28.7894C23.8487 28.5043 24.7757 28.3741 25.8539 28.3995C26.9624 28.4257 27.8534 28.5597 28.5261 28.7991C29.1981 29.0394 29.6821 29.451 29.9782 30.0347C30.2727 30.6177 30.4089 31.4701 30.3837 32.5896C30.3685 33.2616 30.2872 34.1567 30.1395 35.2733C30.0862 35.6729 30.0279 36.08 29.9674 36.4916L39.0139 36.7932C39.0384 36.5979 39.0636 36.4033 39.0859 36.2072C39.2386 34.8661 39.3265 33.6994 39.3481 32.7079C39.4057 30.1155 39.1356 28.0044 38.5407 26.3729C37.945 24.7423 37.1023 23.4738 36.0133 22.5668C34.9242 21.6605 33.6357 21.0296 32.149 20.6734C30.6617 20.3179 29.0411 20.1188 27.2858 20.0769C24.6676 20.0148 22.3894 20.2408 20.4534 20.7542C18.5158 21.2683 16.8477 22.1492 15.449 23.3959C14.0495 24.6435 12.8877 26.3363 11.9621 28.4758C11.1043 30.4583 10.4035 32.9107 9.85681 35.8203L18.9516 36.1234C19.1821 35.0016 19.4284 34.0242 19.6928 33.1995Z" fill="#87F5DD"/>
<path d="M33.336 36.4864C33.2265 37.2258 33.1048 37.9832 32.9687 38.7615C32.7188 40.2926 32.4198 41.6299 32.0712 42.7742C31.7226 43.9184 31.2854 44.8689 30.7603 45.6247C30.2353 46.3806 29.5755 46.9411 28.7818 47.3063C27.988 47.6715 27.0207 47.8406 25.882 47.8137C24.7425 47.7867 23.8206 47.6446 23.1183 47.3879C22.4146 47.1312 21.9155 46.7188 21.6202 46.1516C21.3241 45.5851 21.1873 44.8202 21.2089 43.8608C21.2233 43.221 21.3033 42.3589 21.4509 41.273C21.5978 40.1886 21.7772 39.0713 21.9875 37.924C22.0948 37.2842 22.2065 36.6847 22.3217 36.1205L13.2269 35.8174C13.1837 36.0479 13.139 36.2754 13.098 36.5119C12.8538 37.7871 12.655 39.1027 12.5023 40.4595C12.3489 41.817 12.2603 43.0399 12.2365 44.1272C12.1825 46.5594 12.4389 48.5501 13.0058 50.1007C13.5726 51.6513 14.4009 52.8637 15.4907 53.7378C16.5805 54.6126 17.8762 55.2278 19.3787 55.5832C20.8805 55.9387 22.5248 56.1385 24.3111 56.1812C26.9285 56.2433 29.2132 56.0652 31.1637 55.6483C33.1142 55.2315 34.7794 54.4465 36.1616 53.294C37.5424 52.143 38.6962 50.5048 39.6211 48.3817C40.5459 46.2593 41.2921 43.5226 41.8589 40.1744C42.0671 39.0586 42.2407 37.9293 42.3833 36.788L33.336 36.4864Z" fill="#87F5DD"/>
<path d="M14.4788 33.0828C14.8757 31.8435 15.3439 30.8707 15.8841 30.1627C16.4236 29.4548 17.0812 28.9593 17.8583 28.6727C18.6348 28.3876 19.5618 28.2574 20.64 28.2828C21.7485 28.309 22.6395 28.443 23.3122 28.6824C23.9842 28.9227 24.4682 29.3343 24.7642 29.918C25.0588 30.501 25.195 31.3534 25.1697 32.4729C25.1546 33.1449 25.0732 34.04 24.9256 35.1566C24.8723 35.5562 24.8139 35.9633 24.7534 36.3749L33.8 36.6765C33.8245 36.4812 33.8497 36.2866 33.872 36.0905C34.0247 34.7494 34.1126 33.5827 34.1342 32.5912C34.1918 29.9988 33.9217 27.8877 33.3268 26.2562C32.7311 24.6256 31.8884 23.3571 30.7993 22.4501C29.7103 21.5438 28.4217 20.9129 26.9351 20.5567C25.4478 20.2012 23.8272 20.0021 22.0719 19.9602C19.4537 19.8981 17.1755 20.1241 15.2394 20.6375C13.3019 21.1516 11.6338 22.0325 10.235 23.2792C8.83555 24.5268 7.67376 26.2196 6.74822 28.3591C5.89038 30.3416 5.18957 32.794 4.64288 35.7036L13.7377 36.0067C13.9682 34.8849 14.2145 33.9075 14.4788 33.0828Z" fill="#541F5C"/>
<path d="M28.1221 36.3687C28.0126 37.1081 27.8909 37.8655 27.7548 38.6438C27.5048 40.1749 27.2059 41.5123 26.8573 42.6565C26.5087 43.8008 26.0715 44.7512 25.5464 45.507C25.0213 46.2629 24.3616 46.8234 23.5679 47.1886C22.7741 47.5538 21.8068 47.723 20.6681 47.696C19.5286 47.6691 18.6067 47.5269 17.9044 47.2702C17.2007 47.0135 16.7016 46.6012 16.4062 46.0339C16.1102 45.4674 15.9734 44.7025 15.995 43.7431C16.0094 43.1033 16.0893 42.2412 16.237 41.1553C16.3839 40.0709 16.5633 38.9536 16.7736 37.8064C16.8809 37.1665 16.9925 36.5671 17.1078 36.0028L8.01298 35.6997C7.96976 35.9302 7.92511 36.1577 7.88405 36.3942C7.63988 37.6694 7.44109 38.985 7.28839 40.3418C7.13498 41.6994 7.04638 42.9222 7.02261 44.0096C6.96859 46.4418 7.22501 48.4324 7.79186 49.983C8.35871 51.5336 9.18701 52.746 10.2768 53.6201C11.3665 54.4949 12.6623 55.1101 14.1648 55.4656C15.6665 55.821 17.3109 56.0208 19.0972 56.0635C21.7146 56.1256 23.9993 55.9475 25.9498 55.5307C27.9003 55.1138 29.5655 54.3288 30.9477 53.1763C32.3284 52.0253 33.4823 50.3871 34.4071 48.264C35.332 46.1417 36.0781 43.4049 36.645 40.0567C36.8532 38.9409 37.0267 37.8116 37.1694 36.6703L28.1221 36.3687Z" fill="#541F5C"/>
<path d="M17.5299 33.0828C17.9267 31.8435 18.3949 30.8707 18.9351 30.1627C19.4746 29.4548 20.1322 28.9593 20.9093 28.6727C21.6858 28.3876 22.6128 28.2574 23.691 28.2828C24.7995 28.309 25.6905 28.443 26.3632 28.6824C27.0352 28.9227 27.5192 29.3343 27.8153 29.918C28.1098 30.501 28.246 31.3534 28.2208 32.4729C28.2056 33.1449 28.1243 34.04 27.9766 35.1566C27.9233 35.5562 27.865 35.9633 27.8045 36.3749L36.851 36.6765C36.8755 36.4812 36.9007 36.2866 36.923 36.0905C37.0757 34.7494 37.1636 33.5827 37.1852 32.5912C37.2428 29.9988 36.9727 27.8877 36.3778 26.2562C35.7821 24.6256 34.9394 23.3571 33.8504 22.4501C32.7613 21.5438 31.4728 20.9129 29.9861 20.5567C28.4988 20.2012 26.8782 20.0021 25.1229 19.9602C22.5047 19.8981 20.2265 20.1241 18.2905 20.6375C16.3529 21.1516 14.6848 22.0325 13.2861 23.2792C11.8866 24.5268 10.7248 26.2196 9.79924 28.3591C8.94141 30.3416 8.24059 32.794 7.69391 35.7036L16.7887 36.0067C17.0192 34.8849 17.2662 33.9075 17.5299 33.0828Z" fill="#141316"/>
<path d="M30.6912 36.3687C30.5818 37.1081 30.46 37.8655 30.3239 38.6438C30.074 40.1749 29.7751 41.5123 29.4265 42.6565C29.0779 43.8008 28.6407 44.7512 28.1156 45.507C27.5905 46.2629 26.9307 46.8234 26.137 47.1886C25.3433 47.5538 24.376 47.723 23.2372 47.696C22.0978 47.6691 21.1758 47.5269 20.4736 47.2702C19.7699 47.0135 19.2707 46.6012 18.9754 46.0339C18.6794 45.4674 18.5425 44.7025 18.5641 43.7431C18.5785 43.1033 18.6585 42.2412 18.8061 41.1553C18.9531 40.0709 19.1324 38.9536 19.3427 37.8064C19.4501 37.1665 19.5617 36.5671 19.6769 36.0028L10.5821 35.6997C10.5389 35.9302 10.4943 36.1577 10.4532 36.3942C10.209 37.6694 10.0102 38.985 9.85755 40.3418C9.70413 41.6994 9.61554 42.9222 9.59177 44.0096C9.53775 46.4418 9.79417 48.4324 10.361 49.983C10.9279 51.5336 11.7562 52.746 12.8459 53.6201C13.9357 54.4949 15.2315 55.1101 16.7339 55.4656C18.2357 55.821 19.8801 56.0208 21.6663 56.0635C24.2838 56.1256 26.5684 55.9475 28.5189 55.5307C30.4694 55.1138 32.1347 54.3288 33.5169 53.1763C34.8976 52.0253 36.0515 50.3871 36.9763 48.264C37.9011 46.1417 38.6473 43.4049 39.2142 40.0567C39.4223 38.9409 39.5959 37.8116 39.7385 36.6703L30.6912 36.3687Z" fill="#141316"/>
<path d="M172.545 46.0091C171.252 46.0091 170.219 45.8267 169.447 45.4619C168.689 45.0971 168.139 44.4663 167.798 43.5695C167.456 42.6575 167.285 41.3959 167.285 39.7847C167.285 38.1431 167.449 36.8738 167.775 35.977C168.102 35.065 168.645 34.4266 169.402 34.0618C170.16 33.697 171.185 33.5146 172.478 33.5146C173.622 33.5146 174.535 33.6362 175.219 33.8794C175.917 34.1074 176.422 34.5254 176.734 35.1334C177.061 35.7262 177.225 36.5698 177.225 37.6642C177.225 38.4395 177.076 39.0626 176.779 39.5338C176.482 39.9898 176.051 40.3167 175.486 40.5143C174.937 40.7119 174.283 40.8107 173.525 40.8107H170.026C170.056 41.5707 170.153 42.1787 170.316 42.6347C170.494 43.0755 170.806 43.3947 171.252 43.5923C171.713 43.7899 172.381 43.8887 173.258 43.8887H176.868V45.5531C176.259 45.6747 175.613 45.7811 174.929 45.8723C174.261 45.9635 173.466 46.0091 172.545 46.0091ZM170.004 39.1007H173.258C173.778 39.1007 174.157 39.0019 174.394 38.8042C174.647 38.5914 174.773 38.2115 174.773 37.6642C174.773 37.1322 174.699 36.7142 174.55 36.4102C174.402 36.1062 174.157 35.8934 173.815 35.7718C173.473 35.635 173.027 35.5667 172.478 35.5667C171.854 35.5667 171.363 35.6655 171.007 35.863C170.65 36.0606 170.39 36.4178 170.227 36.9347C170.078 37.4362 170.004 38.1582 170.004 39.1007Z" fill="#141316"/>
<path d="M157.79 51.5266C157.032 51.5266 156.356 51.4126 155.762 51.1846C155.167 50.9718 154.699 50.6374 154.358 50.1814C154.031 49.7406 153.867 49.201 153.867 48.5626V48.1294C153.867 47.4606 154.053 46.8906 154.424 46.4194C154.796 45.9634 155.271 45.6138 155.851 45.3706C156.43 45.1274 157.032 45.0058 157.656 45.0058L158.458 45.9406C158.087 45.9406 157.752 46.0014 157.455 46.123C157.158 46.2446 156.92 46.427 156.742 46.6702C156.564 46.9134 156.475 47.2174 156.475 47.5822V47.947C156.475 48.4942 156.653 48.8894 157.01 49.1326C157.366 49.391 157.871 49.5202 158.525 49.5202H160.954C161.638 49.5202 162.172 49.3834 162.559 49.1098C162.96 48.8514 163.16 48.4486 163.16 47.9014V47.5138C163.16 47.1794 163.094 46.8982 162.96 46.6702C162.826 46.4422 162.611 46.2598 162.314 46.123C162.016 46.0014 161.615 45.9406 161.11 45.9406H158.124C156.935 45.9406 156.036 45.705 155.427 45.2338C154.833 44.7626 154.536 44.1698 154.536 43.4554C154.536 42.8474 154.707 42.3458 155.048 41.9506C155.405 41.5554 155.895 41.2894 156.519 41.1526C156.014 40.9094 155.613 40.5978 155.316 40.2178C155.034 39.8378 154.833 39.4274 154.714 38.9866C154.595 38.5458 154.536 38.0974 154.536 37.6414C154.536 36.7142 154.722 35.9618 155.093 35.3842C155.464 34.7914 156.007 34.3582 156.72 34.0846C157.433 33.7958 158.317 33.6514 159.372 33.6514H165.812V35.2246L163.695 35.521C163.844 35.673 164 35.8554 164.163 36.0682C164.342 36.281 164.49 36.5622 164.609 36.9118C164.728 37.2614 164.787 37.7174 164.787 38.2798C164.787 38.9638 164.646 39.587 164.364 40.1494C164.096 40.7118 163.651 41.1602 163.027 41.4946C162.403 41.829 161.563 41.9962 160.508 41.9962H158.48C158.005 41.9962 157.619 42.0722 157.322 42.2242C157.024 42.3762 156.876 42.6346 156.876 42.9994C156.876 43.3034 156.995 43.5162 157.232 43.6378C157.47 43.7594 157.723 43.8202 157.99 43.8202H161.534C162.44 43.8202 163.205 43.9418 163.829 44.185C164.468 44.4282 164.951 44.8082 165.278 45.325C165.604 45.8418 165.768 46.5258 165.768 47.377V47.7646C165.768 48.935 165.396 49.8546 164.654 50.5234C163.926 51.1922 162.804 51.5266 161.288 51.5266H157.79ZM158.926 39.8758H160.219C160.768 39.8758 161.192 39.7922 161.489 39.625C161.801 39.4426 162.009 39.207 162.113 38.9182C162.232 38.6142 162.291 38.2798 162.291 37.915C162.291 37.3982 162.21 36.9878 162.046 36.6838C161.898 36.3646 161.675 36.1366 161.378 35.9998C161.095 35.863 160.746 35.7946 160.33 35.7946H159.082C158.414 35.7946 157.901 35.9466 157.544 36.2506C157.203 36.5546 157.032 37.0714 157.032 37.801C157.032 38.5306 157.195 39.0626 157.522 39.397C157.849 39.7162 158.317 39.8758 158.926 39.8758Z" fill="#141316"/>
<path d="M145.709 46.0317C144.773 46.0317 143.986 45.8265 143.347 45.4161C142.708 44.9905 142.225 44.3293 141.898 43.4325C141.586 42.5205 141.43 41.3425 141.43 39.8985C141.43 38.3785 141.571 37.1549 141.854 36.2277C142.136 35.2853 142.604 34.6013 143.258 34.1757C143.926 33.7349 144.818 33.5145 145.932 33.5145C146.526 33.5145 147.113 33.5753 147.692 33.6969C148.272 33.8185 148.777 33.9629 149.208 34.1301V28.4985H151.971V45.8949H149.676L149.208 44.7093C148.97 44.9373 148.651 45.1501 148.25 45.3477C147.863 45.5453 147.447 45.7125 147.002 45.8493C146.571 45.9709 146.14 46.0317 145.709 46.0317ZM146.645 43.7517C147.18 43.7517 147.663 43.6681 148.094 43.5009C148.524 43.3185 148.896 43.1361 149.208 42.9537V36.1593C148.836 36.0225 148.458 35.9009 148.071 35.7945C147.685 35.6881 147.262 35.6349 146.801 35.6349C146.177 35.6349 145.672 35.7565 145.286 35.9997C144.899 36.2277 144.617 36.6381 144.439 37.2309C144.275 37.8237 144.194 38.6673 144.194 39.7617C144.194 40.7801 144.275 41.5857 144.439 42.1785C144.602 42.7561 144.862 43.1665 145.219 43.4097C145.59 43.6377 146.066 43.7517 146.645 43.7517Z" fill="#141316"/>
<path d="M134.676 46.0091C133.384 46.0091 132.351 45.8267 131.578 45.4619C130.821 45.0971 130.271 44.4663 129.929 43.5695C129.588 42.6575 129.417 41.3959 129.417 39.7847C129.417 38.1431 129.58 36.8738 129.907 35.977C130.234 35.065 130.776 34.4266 131.534 34.0618C132.292 33.697 133.317 33.5146 134.609 33.5146C135.753 33.5146 136.667 33.6362 137.35 33.8794C138.049 34.1074 138.554 34.5254 138.866 35.1334C139.193 35.7262 139.356 36.5698 139.356 37.6642C139.356 38.4395 139.208 39.0626 138.91 39.5338C138.613 39.9898 138.182 40.3167 137.618 40.5143C137.068 40.7119 136.414 40.8107 135.657 40.8107H132.158C132.188 41.5707 132.284 42.1787 132.448 42.6347C132.626 43.0755 132.938 43.3947 133.384 43.5923C133.844 43.7899 134.513 43.8887 135.389 43.8887H139V45.5531C138.39 45.6747 137.744 45.7811 137.061 45.8723C136.392 45.9635 135.597 46.0091 134.676 46.0091ZM132.136 39.1007H135.389C135.909 39.1007 136.288 39.0019 136.526 38.8042C136.778 38.5914 136.905 38.2115 136.905 37.6642C136.905 37.1322 136.83 36.7142 136.682 36.4102C136.533 36.1062 136.288 35.8934 135.946 35.7718C135.605 35.635 135.159 35.5667 134.609 35.5667C133.985 35.5667 133.495 35.6655 133.138 35.863C132.782 36.0606 132.522 36.4178 132.358 36.9347C132.21 37.4362 132.136 38.1582 132.136 39.1007Z" fill="#141316"/>
<path d="M126.527 45.9405C125.74 45.9405 125.079 45.8037 124.544 45.5301C124.024 45.2565 123.63 44.8309 123.363 44.2533C123.11 43.6757 122.984 42.9081 122.984 41.9505V28.4985H125.747V41.5629C125.747 42.1101 125.799 42.5357 125.903 42.8397C126.022 43.1437 126.185 43.3641 126.393 43.5009C126.601 43.6225 126.854 43.7061 127.151 43.7517L128.154 43.8885V45.9405H126.527Z" fill="#141316"/>
<path d="M109.406 45.8948V29.0684H116.204C116.724 29.0684 117.251 29.1368 117.786 29.2736C118.321 29.3952 118.811 29.646 119.257 30.026C119.717 30.406 120.081 30.9684 120.349 31.7132C120.631 32.458 120.772 33.4536 120.772 34.7C120.772 35.9464 120.631 36.9496 120.349 37.7096C120.066 38.4696 119.695 39.0548 119.234 39.4652C118.789 39.8604 118.298 40.134 117.764 40.286C117.244 40.4228 116.738 40.4912 116.248 40.4912C115.996 40.4912 115.676 40.4836 115.29 40.4684C114.918 40.438 114.525 40.4076 114.109 40.3772C113.708 40.3316 113.329 40.2936 112.972 40.2632C112.63 40.2176 112.356 40.1796 112.148 40.1492V45.8948H109.406ZM112.148 37.9376H115.847C116.278 37.9376 116.657 37.8388 116.984 37.6412C117.31 37.4284 117.563 37.094 117.741 36.638C117.92 36.1668 118.009 35.5284 118.009 34.7228C118.009 33.9324 117.912 33.3092 117.719 32.8532C117.541 32.3972 117.296 32.078 116.984 31.8956C116.686 31.698 116.337 31.5992 115.936 31.5992H112.148V37.9376Z" fill="#141316"/>
<path d="M96.0624 45.8947V33.6739H98.3132L98.8258 34.9507C99.3161 34.5707 99.9104 34.2288 100.609 33.9247C101.322 33.6207 102.057 33.4688 102.815 33.4688C103.751 33.4688 104.486 33.6663 105.021 34.0615C105.556 34.4415 105.935 34.9583 106.158 35.6119C106.396 36.2655 106.514 36.9799 106.514 37.7551V45.8947H103.751V38.0971C103.751 37.6563 103.669 37.2839 103.506 36.9799C103.342 36.6759 103.112 36.4403 102.815 36.2731C102.533 36.1059 102.184 36.0223 101.768 36.0223C101.381 36.0223 101.017 36.0603 100.676 36.1363C100.349 36.2123 100.037 36.3263 99.7395 36.4783C99.4424 36.6303 99.1378 36.8127 98.8258 37.0255V45.8947H96.0624Z" fill="#141316"/>
<path d="M88.9295 46.0091C87.637 46.0091 86.6044 45.8267 85.8318 45.4619C85.0741 45.0971 84.5244 44.4663 84.1827 43.5695C83.841 42.6575 83.6701 41.3959 83.6701 39.7847C83.6701 38.1431 83.8335 36.8738 84.1604 35.977C84.4872 35.065 85.0295 34.4266 85.7872 34.0618C86.545 33.697 87.5701 33.5146 88.8627 33.5146C90.0067 33.5146 90.9204 33.6362 91.6038 33.8794C92.3021 34.1074 92.8072 34.5254 93.1192 35.1334C93.4461 35.7262 93.6095 36.5698 93.6095 37.6642C93.6095 38.4395 93.461 39.0626 93.1638 39.5338C92.8667 39.9898 92.4358 40.3167 91.8713 40.5143C91.3215 40.7119 90.6678 40.8107 89.9101 40.8107H86.4112C86.441 41.5707 86.5375 42.1787 86.701 42.6347C86.8792 43.0755 87.1912 43.3947 87.637 43.5923C88.0975 43.7899 88.7661 43.8887 89.6427 43.8887H93.253V45.5531C92.6438 45.6747 91.9975 45.7811 91.3141 45.8723C90.6455 45.9635 89.8507 46.0091 88.9295 46.0091ZM86.389 39.1007H89.6427C90.1627 39.1007 90.5415 39.0019 90.7793 38.8042C91.0318 38.5914 91.1581 38.2115 91.1581 37.6642C91.1581 37.1322 91.0838 36.7142 90.9353 36.4102C90.7867 36.1062 90.5415 35.8934 90.1998 35.7718C89.8581 35.635 89.4124 35.5667 88.8627 35.5667C88.2387 35.5667 87.7484 35.6655 87.3918 35.863C87.0352 36.0606 86.7752 36.4178 86.6118 36.9347C86.4632 37.4362 86.389 38.1582 86.389 39.1007Z" fill="#141316"/>
<path d="M71.0562 51.2987V33.6742H73.3516L73.8196 34.8827C74.1019 34.6546 74.4288 34.4342 74.8002 34.2214C75.1716 34.0086 75.5728 33.8414 76.0036 33.7198C76.4345 33.583 76.8802 33.5146 77.3408 33.5146C78.0985 33.5146 78.7448 33.6666 79.2796 33.9706C79.8294 34.2746 80.2751 34.7079 80.6168 35.2703C80.9585 35.8175 81.2036 36.4786 81.3522 37.2538C81.5156 38.0138 81.5974 38.8575 81.5974 39.7847C81.5974 41.1223 81.4562 42.2623 81.1739 43.2047C80.9065 44.1319 80.4608 44.8387 79.8368 45.3251C79.2276 45.8115 78.3956 46.0547 77.3408 46.0547C76.7465 46.0547 76.1374 45.9711 75.5134 45.8039C74.9042 45.6367 74.3396 45.4163 73.8196 45.1427V51.2987H71.0562ZM76.4716 43.7291C76.9025 43.7291 77.2962 43.6151 77.6528 43.3871C78.0094 43.1439 78.2916 42.7411 78.4996 42.1787C78.7225 41.6163 78.8339 40.8183 78.8339 39.7847C78.8339 38.7967 78.7299 38.0063 78.5219 37.4135C78.3139 36.8206 78.0316 36.4027 77.6751 36.1595C77.3334 35.9162 76.9396 35.7947 76.4939 35.7947C75.9442 35.7947 75.4465 35.8858 75.0008 36.0682C74.5551 36.2354 74.1614 36.4102 73.8196 36.5926V42.9767C74.2059 43.2047 74.6294 43.3871 75.0899 43.5239C75.5505 43.6607 76.0111 43.7291 76.4716 43.7291Z" fill="#141316"/>
<path d="M61.8899 46.0315C60.7904 46.0315 59.8247 45.9251 58.9927 45.7123C58.1756 45.4843 57.4847 45.0815 56.9201 44.5039C56.3704 43.9111 55.9544 43.0523 55.6721 41.9275C55.4047 40.8027 55.271 39.3359 55.271 37.5271C55.271 35.7031 55.4121 34.2287 55.6944 33.1039C55.9767 31.9639 56.3927 31.0975 56.9424 30.5047C57.507 29.8967 58.1979 29.4787 59.015 29.2507C59.847 29.0227 60.8053 28.9087 61.8899 28.9087C63.0041 28.9087 63.9773 29.0227 64.8093 29.2507C65.6413 29.4787 66.3321 29.8967 66.8819 30.5047C67.4316 31.0975 67.8401 31.9639 68.1076 33.1039C68.3899 34.2287 68.531 35.7031 68.531 37.5271C68.531 39.3359 68.3899 40.8027 68.1076 41.9275C67.8401 43.0523 67.4241 43.9111 66.8596 44.5039C66.3099 45.0815 65.619 45.4843 64.787 45.7123C63.9699 45.9251 63.0041 46.0315 61.8899 46.0315ZM61.8899 43.5007C62.6179 43.5007 63.227 43.4247 63.7173 43.2727C64.2224 43.1055 64.6236 42.8167 64.9207 42.4063C65.2179 41.9807 65.4333 41.3803 65.567 40.6051C65.7007 39.8147 65.7676 38.7887 65.7676 37.5271C65.7676 36.1895 65.6933 35.1255 65.5447 34.3351C65.411 33.5295 65.1956 32.9215 64.8984 32.5111C64.6013 32.0855 64.2076 31.8043 63.7173 31.6675C63.227 31.5155 62.6179 31.4395 61.8899 31.4395C61.2064 31.4395 60.6196 31.5155 60.1293 31.6675C59.639 31.8043 59.2379 32.0855 58.9259 32.5111C58.6287 32.9215 58.4059 33.5295 58.2573 34.3351C58.1087 35.1255 58.0344 36.1895 58.0344 37.5271C58.0344 38.7887 58.0939 39.8147 58.2127 40.6051C58.3464 41.3803 58.5619 41.9807 58.859 42.4063C59.1561 42.8167 59.5499 43.1055 60.0401 43.2727C60.5453 43.4247 61.1619 43.5007 61.8899 43.5007Z" fill="#141316"/>
</svg>
