<svg width="24" height="24" viewBox="0 0 10 24" fill="none" xmlns="http://www.w3.org/2000/svg">
<path d="M4.714 5.368L4.522 4.792L5.082 3.816L5.274 4.36L4.714 5.368ZM4.522 18.424V16.904L5.274 16.92V18.424H4.522ZM4.826 17.096C4.59133 17.096 4.30867 17.0853 3.978 17.064C3.658 17.0533 3.32733 17.032 2.986 17C2.64467 16.9787 2.31933 16.952 2.01 16.92C1.71133 16.888 1.46067 16.8507 1.258 16.808V15.832C1.52467 15.8533 1.85 15.8747 2.234 15.896C2.618 15.9173 3.02867 15.9333 3.466 15.944C3.914 15.9547 4.35133 15.96 4.778 15.96C5.258 15.96 5.69 15.912 6.074 15.816C6.458 15.72 6.762 15.544 6.986 15.288C7.22067 15.032 7.338 14.664 7.338 14.184V13.384C7.338 12.84 7.19933 12.4293 6.922 12.152C6.64467 11.864 6.19667 11.72 5.578 11.72H4.314C3.34333 11.72 2.58067 11.5067 2.026 11.08C1.482 10.6533 1.21 9.91733 1.21 8.872V8.2C1.21 7.09067 1.50867 6.30133 2.106 5.832C2.70333 5.36267 3.546 5.128 4.634 5.128C4.97533 5.128 5.35933 5.14933 5.786 5.192C6.21267 5.224 6.62333 5.26667 7.018 5.32C7.42333 5.36267 7.75933 5.41067 8.026 5.464V6.44C7.55667 6.39733 7.02333 6.36 6.426 6.328C5.83933 6.296 5.28467 6.28 4.762 6.28C4.282 6.28 3.866 6.33867 3.514 6.456C3.162 6.56267 2.89 6.76 2.698 7.048C2.51667 7.32533 2.426 7.72533 2.426 8.248V8.792C2.426 9.44267 2.59667 9.89067 2.938 10.136C3.27933 10.3813 3.754 10.504 4.362 10.504H5.722C6.37267 10.504 6.906 10.6213 7.322 10.856C7.738 11.0907 8.04733 11.416 8.25 11.832C8.45267 12.2373 8.554 12.7067 8.554 13.24V14.152C8.554 14.9413 8.38333 15.5493 8.042 15.976C7.71133 16.4027 7.26333 16.696 6.698 16.856C6.14333 17.016 5.51933 17.096 4.826 17.096Z" fill="currentColor"/>
</svg>