<svg width="138" height="114" viewBox="0 0 138 114" fill="none" xmlns="http://www.w3.org/2000/svg">
<g clip-path="url(#clip0_1698_106037)">
<path d="M126.667 12.4688C127.649 12.4688 128.444 11.6713 128.444 10.6875C128.444 9.70374 127.649 8.90625 126.667 8.90625C125.685 8.90625 124.889 9.70374 124.889 10.6875C124.889 11.6713 125.685 12.4688 126.667 12.4688Z" fill="none"/>
<path d="M119.556 12.4688C120.537 12.4688 121.333 11.6713 121.333 10.6875C121.333 9.70374 120.537 8.90625 119.556 8.90625C118.574 8.90625 117.778 9.70374 117.778 10.6875C117.778 11.6713 118.574 12.4688 119.556 12.4688Z" fill="none"/>
<path d="M112.444 12.4688C113.426 12.4688 114.222 11.6713 114.222 10.6875C114.222 9.70374 113.426 8.90625 112.444 8.90625C111.463 8.90625 110.667 9.70374 110.667 10.6875C110.667 11.6713 111.463 12.4688 112.444 12.4688Z" fill="none"/>
<path d="M131.667 0H6.22222C4.57199 0 2.98934 0.656834 1.82245 1.82601C0.655554 2.99518 0 4.58092 0 6.23438L0 107.766C0 109.419 0.655554 111.005 1.82245 112.174C2.98934 113.343 4.57199 114 6.22222 114H131.667C133.317 114 134.9 113.343 136.066 112.174C137.233 111.005 137.889 109.419 137.889 107.766V6.23438C137.889 4.58092 137.233 2.99518 136.066 1.82601C134.9 0.656834 133.317 0 131.667 0ZM6.22222 3.5625H131.667C132.374 3.5625 133.052 3.844 133.552 4.34507C134.052 4.84615 134.333 5.52575 134.333 6.23438V17.8125H3.55556V6.23438C3.55556 5.52575 3.83651 4.84615 4.3366 4.34507C4.8367 3.844 5.51498 3.5625 6.22222 3.5625ZM131.667 110.438H6.22222C5.51498 110.438 4.8367 110.156 4.3366 109.655C3.83651 109.154 3.55556 108.474 3.55556 107.766V21.375H134.333V107.766C134.333 108.474 134.052 109.154 133.552 109.655C133.052 110.156 132.374 110.438 131.667 110.438Z" fill="none"/>
<path d="M69.0748 75.0796C62.1237 75.0796 55.8126 78.1077 52.9859 82.828C52.8337 83.0288 52.7258 83.2597 52.6694 83.5055C52.6129 83.7512 52.6091 84.0061 52.6583 84.2534C52.7075 84.5007 52.8085 84.7346 52.9547 84.9399C53.1009 85.1451 53.2889 85.3169 53.5063 85.4439C53.7237 85.571 53.9655 85.6503 54.2158 85.6766C54.4661 85.703 54.7191 85.6759 54.9581 85.597C55.1971 85.5181 55.4167 85.3892 55.6023 85.219C55.7879 85.0487 55.9353 84.8409 56.0348 84.6093C58.2304 80.9666 63.3503 78.6154 69.0748 78.6154C74.4704 78.6154 79.4659 80.7885 81.8037 84.1462C81.9309 84.3515 82.0985 84.5288 82.2963 84.6672C82.4941 84.8056 82.7179 84.9022 82.9541 84.9512C83.1904 85.0001 83.4341 85.0004 83.6704 84.952C83.9068 84.9035 84.1308 84.8074 84.3289 84.6694C84.527 84.5315 84.695 84.3546 84.8226 84.1495C84.9503 83.9444 85.035 83.7154 85.0715 83.4765C85.108 83.2376 85.0956 82.9937 85.035 82.7597C84.9745 82.5257 84.867 82.3066 84.7192 82.1155C81.697 77.7871 75.697 75.0796 69.0748 75.0796Z" fill="none"/>
<path d="M55.2881 63.5995C55.6282 63.8914 56.0656 64.0438 56.5131 64.0265C56.9605 64.0092 57.3849 63.8234 57.7015 63.5061C58.0181 63.1889 58.2036 62.7637 58.2209 62.3154C58.2382 61.8671 58.086 61.4287 57.7948 61.088L51.9459 55.2188L57.7948 49.3495C58.086 49.0088 58.2382 48.5705 58.2209 48.1222C58.2036 47.6739 58.0181 47.2486 57.7015 46.9314C57.3849 46.6142 56.9605 46.4283 56.5131 46.411C56.0656 46.3937 55.6282 46.5462 55.2881 46.838L49.4303 52.6983L43.5725 46.838C43.2324 46.5462 42.795 46.3937 42.3476 46.411C41.9001 46.4283 41.4757 46.6142 41.1591 46.9314C40.8425 47.2486 40.657 47.6739 40.6397 48.1222C40.6224 48.5705 40.7746 49.0088 41.0659 49.3495L46.9148 55.2188L41.0659 61.088C40.8798 61.2477 40.7286 61.4442 40.6219 61.6652C40.5152 61.8862 40.4552 62.1269 40.4458 62.3722C40.4363 62.6175 40.4776 62.8621 40.567 63.0907C40.6563 63.3193 40.7919 63.5269 40.9652 63.7005C41.1384 63.874 41.3456 64.0099 41.5737 64.0994C41.8019 64.189 42.046 64.2303 42.2909 64.2208C42.5357 64.2114 42.7759 64.1513 42.9965 64.0444C43.217 63.9375 43.4132 63.786 43.5725 63.5995L49.4303 57.7392L55.2881 63.5995Z" fill="none"/>
<path d="M96.9058 46.838C96.5728 46.5063 96.1222 46.3201 95.6525 46.3201C95.1828 46.3201 94.7323 46.5063 94.3992 46.838L88.5414 52.6984L82.6836 46.838C82.3435 46.5462 81.9061 46.3937 81.4586 46.4111C81.0112 46.4284 80.5868 46.6142 80.2702 46.9314C79.9536 47.2487 79.7681 47.6739 79.7508 48.1222C79.7335 48.5705 79.8857 49.0088 80.177 49.3496L86.0258 55.2188L80.177 61.088C79.9908 61.2477 79.8397 61.4442 79.733 61.6652C79.6263 61.8862 79.5663 62.1269 79.5569 62.3722C79.5474 62.6175 79.5887 62.8622 79.678 63.0907C79.7674 63.3193 79.903 63.5269 80.0762 63.7005C80.2495 63.8741 80.4567 64.0099 80.6848 64.0995C80.913 64.189 81.1571 64.2304 81.4019 64.2209C81.6468 64.2114 81.887 64.1513 82.1076 64.0444C82.3281 63.9375 82.5243 63.7861 82.6836 63.5996L88.5414 57.7393L94.3992 63.5996C94.7393 63.8914 95.1767 64.0439 95.6242 64.0266C96.0716 64.0093 96.496 63.8234 96.8126 63.5062C97.1292 63.189 97.3147 62.7637 97.332 62.3154C97.3493 61.8671 97.1971 61.4288 96.9058 61.088L91.057 55.2188L96.9058 49.3496C97.237 49.0159 97.4228 48.5644 97.4228 48.0938C97.4228 47.6232 97.237 47.1718 96.9058 46.838Z" fill="none"/>
</g>
<defs>
<clipPath id="clip0_1698_106037">
<rect width="138" height="114" fill="white"/>
</clipPath>
</defs>
</svg>
