<svg width="78" height="78" viewBox="0 0 78 78" fill="none" xmlns="http://www.w3.org/2000/svg">
<path d="M78.0001 0H0.000102282L0 78H27C28 78 29.2842 77 29.3378 75.2333C29.3378 74.3021 29.3037 71.8403 29.2842 68.574C18.4373 70.9384 16.1461 63.3236 16.1461 63.3236C14.3765 58.7996 11.8171 57.5955 11.8171 57.5955C8.27298 55.1678 12.0804 55.2165 12.0804 55.2165C15.995 55.4944 18.0522 59.253 18.0522 59.253C21.533 65.2346 27.1831 63.5089 29.4061 62.5046C29.7571 59.9745 30.7662 58.2488 31.8826 57.2689C23.2246 56.2793 14.1181 52.9204 14.1181 37.92C14.1181 33.6446 15.6391 30.1493 18.1351 27.4095C17.7305 26.4199 16.3947 22.437 18.5153 17.0501C18.5153 17.0501 21.7913 15.9972 29.2403 21.0623C32.3506 20.1945 35.6851 19.7606 39.005 19.746C42.3151 19.7655 45.6545 20.1945 48.7696 21.0672C56.2137 16.002 59.4849 17.055 59.4849 17.055C61.6104 22.4468 60.2746 26.4248 59.8749 27.4144C62.3757 30.1542 63.8821 33.6495 63.8821 37.9249C63.8821 52.9643 54.7659 56.2744 46.0786 57.2445C47.4777 58.4535 48.7257 60.8423 48.7257 64.4937C48.7257 69.7294 48.677 73.9511 48.677 75.2333C48.7257 77.2067 50 78 51.5 78H78.0001V0Z" fill="#5C6BC0"/>
</svg>
