<svg xmlns="http://www.w3.org/2000/svg" width="20" height="20" fill="none" viewBox="0 0 20 20" class="min-w-5 min-h-5 cursor-pointer dark:fill-spun-pearl">
  <path d="M10 3.654a6.346 6.346 0 1 0 0 12.692 6.346 6.346 0 0 0 0-12.692M4.697 4.697a7.5 7.5 0 1 1 10.606 10.606A7.5 7.5 0 0 1 4.697 4.697m4.726 2.418c0-.318.258-.577.577-.577h.006c.319 0 .577.259.577.577v.007a.577.577 0 0 1-.577.576H10a.577.577 0 0 1-.577-.576zM10 9.038c.319 0 .577.259.577.577v3.846a.577.577 0 1 1-1.154 0V9.615c0-.318.258-.577.577-.577" clip-rule="evenodd"></path>
</svg>
