<svg width="24" height="24" viewBox="0 0 24 24" fill="none" xmlns="http://www.w3.org/2000/svg">
<path d="M15.75 5.2502C16.5456 5.2502 17.3087 5.56627 17.8713 6.12888C18.4339 6.69149 18.75 7.45455 18.75 8.2502M21.75 8.2502C21.7501 9.12532 21.5588 9.98987 21.1895 10.7832C20.8202 11.5766 20.2818 12.2796 19.6121 12.8429C18.9424 13.4062 18.1575 13.8161 17.3126 14.044C16.4677 14.272 15.5831 14.3123 14.721 14.1622C14.158 14.0652 13.562 14.1882 13.158 14.5922L10.5 17.2502H8.25V19.5002H6V21.7502H2.25V18.9322C2.25 18.3352 2.487 17.7622 2.909 17.3412L9.408 10.8422C9.812 10.4382 9.935 9.8422 9.838 9.2792C9.6962 8.46037 9.72604 7.62101 9.92563 6.81431C10.1252 6.00761 10.4902 5.25117 10.9975 4.59293C11.5047 3.93469 12.1432 3.389 12.8724 2.99044C13.6016 2.59188 14.4057 2.34915 15.2336 2.27763C16.0616 2.20611 16.8953 2.30736 17.6821 2.57496C18.4688 2.84256 19.1914 3.27068 19.8041 3.83218C20.4167 4.39369 20.906 5.07633 21.241 5.83685C21.5759 6.59737 21.7493 7.41918 21.75 8.2502Z" stroke="none" stroke-width="1.5" stroke-linecap="round" stroke-linejoin="round"/>
</svg>
