<svg width="22" height="18" viewBox="0 0 22 18" fill="none" xmlns="http://www.w3.org/2000/svg">
<path fill-rule="evenodd" clip-rule="evenodd" d="M1.37868 1.62868C1.94129 1.06607 2.70435 0.75 3.5 0.75H18.5C19.2957 0.75 20.0587 1.06607 20.6213 1.62868C21.1839 2.19129 21.5 2.95435 21.5 3.75V3.99292V14.25C21.5 15.0456 21.1839 15.8087 20.6213 16.3713C20.0587 16.9339 19.2957 17.25 18.5 17.25H3.5C2.70435 17.25 1.94129 16.9339 1.37868 16.3713C0.816071 15.8087 0.5 15.0456 0.5 14.25V3.99458V3.75C0.5 2.95435 0.816071 2.19129 1.37868 1.62868ZM2 3.75V3.994C2 3.99389 2 3.99411 2 3.994C2.00003 4.24998 2.06557 4.50212 2.19038 4.72561C2.31518 4.94909 2.49509 5.13691 2.71299 5.2712L10.213 9.8852C10.4495 10.0309 10.7222 10.1082 11 10.1082C11.2778 10.1082 11.5501 10.0311 11.7867 9.88542L19.2867 5.27042C19.5046 5.13612 19.6848 4.94811 19.8096 4.72461C19.9344 4.50112 20 4.2494 20 3.99342C20 3.99331 20 3.99353 20 3.99342V3.75C20 3.35218 19.842 2.97064 19.5607 2.68934C19.2794 2.40804 18.8978 2.25 18.5 2.25H3.5C3.10218 2.25 2.72064 2.40804 2.43934 2.68934C2.15804 2.97064 2 3.35218 2 3.75ZM20 6.59271L12.5733 11.1626C12.5732 11.1626 12.5734 11.1625 12.5733 11.1626C12.1003 11.4538 11.5555 11.6082 11 11.6082C10.4445 11.6082 9.89999 11.454 9.42701 11.1628C9.4269 11.1627 9.42713 11.1629 9.42701 11.1628L2 6.5937V14.25C2 14.6478 2.15804 15.0294 2.43934 15.3107C2.72064 15.592 3.10218 15.75 3.5 15.75H18.5C18.8978 15.75 19.2794 15.592 19.5607 15.3107C19.842 15.0294 20 14.6478 20 14.25V6.59271Z" fill="currentColor"/>
</svg>
