<svg width="22" height="22" viewBox="0 0 22 22" fill="none" xmlns="http://www.w3.org/2000/svg">
<path fill-rule="evenodd" clip-rule="evenodd" d="M12.5377 2.0377C13.5223 1.05313 14.8576 0.5 16.25 0.5C17.6424 0.5 18.9778 1.05313 19.9624 2.0377C20.9469 3.02227 21.5001 4.35763 21.5001 5.75003C21.5001 7.14242 20.9469 8.47779 19.9624 9.46236L18.2054 11.2194C17.9125 11.5123 17.4376 11.5123 17.1447 11.2194C16.8518 10.9265 16.8518 10.4516 17.1447 10.1587L18.9017 8.4017C19.605 7.69843 20.0001 6.7446 20.0001 5.75003C20.0001 4.75546 19.605 3.80162 18.9017 3.09836C18.1984 2.39509 17.2446 2 16.25 2C15.2555 2 14.3016 2.39509 13.5984 3.09836L9.09836 7.59836C8.67389 8.02253 8.35722 8.54255 8.17532 9.1144C7.99342 9.68624 7.95141 10.2934 8.05281 10.8848C8.15422 11.4763 8.39608 12.0348 8.75808 12.5133C9.12008 12.9919 9.59165 13.3767 10.1332 13.6352C10.507 13.8137 10.6653 14.2614 10.4868 14.6352C10.3084 15.009 9.86068 15.1673 9.48689 14.9888C8.72875 14.6269 8.06856 14.0883 7.56176 13.4182C7.05496 12.7482 6.71635 11.9663 6.57438 11.1383C6.43242 10.3103 6.49124 9.46028 6.7459 8.6597C7.00053 7.85921 7.44353 7.1315 8.0377 6.5377C8.03763 6.53776 8.03776 6.53763 8.0377 6.5377L12.5377 2.0377ZM11.5132 7.36489C11.6917 6.99109 12.1394 6.83275 12.5132 7.01121C13.2713 7.37318 13.9315 7.9118 14.4383 8.58182C14.9451 9.25185 15.2837 10.0337 15.4257 10.8617C15.5676 11.6898 15.5088 12.5398 15.2542 13.3404C14.9995 14.1409 14.5565 14.8686 13.9624 15.4624C13.9623 15.4624 13.9624 15.4623 13.9624 15.4624L9.46236 19.9624C8.47779 20.9469 7.14242 21.5001 5.75003 21.5001C4.35763 21.5001 3.02227 20.9469 2.0377 19.9624C1.05313 18.9778 0.5 17.6424 0.5 16.25C0.5 14.8576 1.05313 13.5223 2.0377 12.5377L3.7947 10.7807C4.08759 10.4878 4.56246 10.4878 4.85536 10.7807C5.14825 11.0736 5.14825 11.5485 4.85536 11.8414L3.09836 13.5984C2.39509 14.3016 2 15.2555 2 16.25C2 17.2446 2.39509 18.1984 3.09836 18.9017C3.80162 19.605 4.75546 20.0001 5.75003 20.0001C6.7446 20.0001 7.69843 19.605 8.4017 18.9017L12.9017 14.4017C13.3262 13.9775 13.6428 13.4575 13.8247 12.8857C14.0066 12.3138 14.0486 11.7067 13.9472 11.1152C13.8458 10.5238 13.604 9.9653 13.242 9.48671C12.88 9.00812 12.4084 8.62339 11.8669 8.36484C11.4931 8.18638 11.3347 7.73868 11.5132 7.36489Z" fill="#187C65"/>
</svg>
