<svg width="35" height="24" viewBox="0 0 35 24" fill="none" xmlns="http://www.w3.org/2000/svg">
<rect x="0.5" y="0.5" width="33.5" height="23" rx="5.5" fill="#F7F7F8"/>
<rect x="0.5" y="0.5" width="33.5" height="23" rx="5.5" stroke="#F0EFF1"/>
<path fill-rule="evenodd" clip-rule="evenodd" d="M17.1789 16.8296C15.9948 17.8276 14.459 18.43 12.7807 18.43C9.03582 18.43 6 15.4303 6 11.73C6 8.02972 9.03582 5.03003 12.7807 5.03003C14.459 5.03003 15.9948 5.6325 17.1789 6.63049C18.3629 5.6325 19.8988 5.03003 21.5771 5.03003C25.3219 5.03003 28.3578 8.02972 28.3578 11.73C28.3578 15.4303 25.3219 18.43 21.5771 18.43C19.8988 18.43 18.3629 17.8276 17.1789 16.8296Z" fill="#ED0006"/>
<path fill-rule="evenodd" clip-rule="evenodd" d="M17.1792 16.8295C18.6371 15.6006 19.5616 13.772 19.5616 11.73C19.5616 9.68807 18.6371 7.85947 17.1792 6.63057C18.3632 5.63253 19.8992 5.03003 21.5775 5.03003C25.3224 5.03003 28.3582 8.02972 28.3582 11.73C28.3582 15.4303 25.3224 18.43 21.5775 18.43C19.8992 18.43 18.3632 17.8275 17.1792 16.8295Z" fill="#F9A000"/>
<path fill-rule="evenodd" clip-rule="evenodd" d="M17.1789 16.8294C18.6369 15.6005 19.5614 13.7719 19.5614 11.7299C19.5614 9.68791 18.6369 7.85928 17.1789 6.63037C15.7209 7.85928 14.7964 9.68791 14.7964 11.7299C14.7964 13.7719 15.7209 15.6005 17.1789 16.8294Z" fill="#FF5E00"/>
</svg>
