<svg width="24" height="24" viewBox="0 0 24 24" fill="none" xmlns="http://www.w3.org/2000/svg">
<path fill-rule="evenodd" clip-rule="evenodd" d="M15 3C15 2.58579 15.3358 2.25 15.75 2.25H21C21.4142 2.25 21.75 2.58579 21.75 3V8.25C21.75 8.66421 21.4142 9 21 9C20.5858 9 20.25 8.66421 20.25 8.25V4.81066L8.03033 17.0303C7.73744 17.3232 7.26256 17.3232 6.96967 17.0303C6.67678 16.7374 6.67678 16.2626 6.96967 15.9697L19.1893 3.75H15.75C15.3358 3.75 15 3.41421 15 3ZM3.12868 6.12868C3.69129 5.56607 4.45435 5.25 5.25 5.25H13.5C13.9142 5.25 14.25 5.58579 14.25 6C14.25 6.41421 13.9142 6.75 13.5 6.75H5.25C4.85218 6.75 4.47064 6.90804 4.18934 7.18934C3.90804 7.47064 3.75 7.85218 3.75 8.25V18.75C3.75 19.1478 3.90804 19.5294 4.18934 19.8107C4.47064 20.092 4.85218 20.25 5.25 20.25H15.75C16.1478 20.25 16.5294 20.092 16.8107 19.8107C17.092 19.5294 17.25 19.1478 17.25 18.75V10.5C17.25 10.0858 17.5858 9.75 18 9.75C18.4142 9.75 18.75 10.0858 18.75 10.5V18.75C18.75 19.5457 18.4339 20.3087 17.8713 20.8713C17.3087 21.4339 16.5456 21.75 15.75 21.75H5.25C4.45435 21.75 3.69129 21.4339 3.12868 20.8713C2.56607 20.3087 2.25 19.5456 2.25 18.75V8.25C2.25 7.45435 2.56607 6.69129 3.12868 6.12868Z" fill="#ACA8B3"/>
</svg>
