<svg width="24" height="24" viewBox="0 0 24 24" fill="none" xmlns="http://www.w3.org/2000/svg">
<path fill-rule="evenodd" clip-rule="evenodd" d="M19.0857 3.5C18.7873 3.5 18.5011 3.61855 18.2901 3.82958L17.1332 4.98709L18.7242 6.57809L19.8814 5.42092C20.0924 5.20989 20.211 4.92368 20.211 4.62525C20.211 4.32681 20.0924 4.0406 19.8814 3.82958C19.6704 3.61855 19.3842 3.5 19.0857 3.5ZM17.6636 7.63875L16.0732 6.04837L6.2105 15.909C5.7703 16.3495 5.44654 16.8929 5.26884 17.4898L4.86473 18.8461L6.22086 18.442C6.81776 18.2643 7.36115 17.9407 7.80169 17.5005L17.6636 7.63875ZM15.5197 4.48062C15.527 4.47265 15.5345 4.4648 15.5423 4.45707L17.2293 2.76907C17.7216 2.27674 18.3895 2 19.0857 2C19.782 2 20.4497 2.27659 20.9421 2.76892C21.4344 3.26125 21.711 3.92899 21.711 4.62525C21.711 5.32151 21.4344 5.98925 20.9421 6.48158L8.86235 18.5611C8.24556 19.1776 7.48479 19.6308 6.64903 19.8796L3.96418 20.6796C3.70024 20.7582 3.41443 20.6859 3.21969 20.4911C3.02495 20.2964 2.9526 20.0106 3.03125 19.7467L3.8312 17.0618C4.08002 16.2261 4.53311 15.4654 5.14953 14.8486L15.5197 4.48062Z"/>
</svg> 