<svg viewBox="0 0 20 18" fill="none" xmlns="http://www.w3.org/2000/svg">
<path d="M9.52328 1.20745C9.56205 1.11288 9.62808 1.03198 9.71296 0.975038C9.79784 0.918099 9.89774 0.887695 9.99995 0.887695C10.1022 0.887695 10.2021 0.918099 10.2869 0.975038C10.3718 1.03198 10.4378 1.11288 10.4766 1.20745L12.4245 5.89253C12.461 5.9802 12.5209 6.05611 12.5978 6.1119C12.6746 6.1677 12.7653 6.20122 12.8599 6.20878L17.9181 6.61395C18.3755 6.65062 18.5607 7.2217 18.2124 7.51962L14.3587 10.8215C14.2867 10.883 14.233 10.9633 14.2036 11.0533C14.1742 11.1434 14.1701 11.2398 14.1919 11.332L15.3698 16.2683C15.3935 16.3673 15.3873 16.4711 15.352 16.5667C15.3166 16.6622 15.2538 16.7451 15.1714 16.8049C15.0891 16.8647 14.9908 16.8988 14.889 16.9028C14.7873 16.9068 14.6866 16.8806 14.5998 16.8275L10.2685 14.1829C10.1877 14.1335 10.0947 14.1073 9.99995 14.1073C9.90517 14.1073 9.81224 14.1335 9.73136 14.1829L5.40011 16.8284C5.31327 16.8815 5.21261 16.9078 5.11087 16.9037C5.00912 16.8997 4.91084 16.8657 4.82845 16.8058C4.74606 16.746 4.68325 16.6631 4.64794 16.5676C4.61264 16.4721 4.60644 16.3682 4.63011 16.2692L5.80803 11.332C5.82988 11.2398 5.82586 11.1434 5.79643 11.0533C5.76699 10.9632 5.71328 10.883 5.6412 10.8215L1.78753 7.51962C1.70993 7.45347 1.6537 7.36577 1.62598 7.26764C1.59825 7.16951 1.60027 7.06536 1.63178 6.96838C1.66329 6.8714 1.72287 6.78595 1.80298 6.72286C1.88309 6.65976 1.98012 6.62186 2.08178 6.61395L7.13995 6.20878C7.23459 6.20122 7.32532 6.1677 7.40214 6.1119C7.47896 6.05611 7.5389 5.9802 7.57536 5.89253L9.52328 1.20745Z" stroke="#" stroke-width="1.5" stroke-linecap="round" stroke-linejoin="round"/>
</svg>
