<svg width="24" height="24" viewBox="0 0 24 24" fill="none" xmlns="http://www.w3.org/2000/svg">
<path d="M12 2V4.5V2ZM19.0711 4.92889L17.3033 6.69667L19.0711 4.92889ZM22 12H19.5H22ZM19.0711 19.0711L17.3033 17.3033L19.0711 19.0711ZM12 19.5V22V19.5ZM6.69667 17.3033L4.92889 19.0711L6.69667 17.3033ZM4.5 12H2H4.5ZM6.69667 6.69667L4.92889 4.92889L6.69667 6.69667ZM16.1667 12C16.1667 13.1051 15.7277 14.1649 14.9463 14.9463C14.1649 15.7277 13.1051 16.1667 12 16.1667C10.8949 16.1667 9.83512 15.7277 9.05372 14.9463C8.27232 14.1649 7.83333 13.1051 7.83333 12C7.83333 10.8949 8.27232 9.83512 9.05372 9.05372C9.83512 8.27232 10.8949 7.83333 12 7.83333C13.1051 7.83333 14.1649 8.27232 14.9463 9.05372C15.7277 9.83512 16.1667 10.8949 16.1667 12Z" fill=""/>
<path d="M12 2V4.5M19.0711 4.92889L17.3033 6.69667M22 12H19.5M19.0711 19.0711L17.3033 17.3033M12 19.5V22M6.69667 17.3033L4.92889 19.0711M4.5 12H2M6.69667 6.69667L4.92889 4.92889M16.1667 12C16.1667 13.1051 15.7277 14.1649 14.9463 14.9463C14.1649 15.7277 13.1051 16.1667 12 16.1667C10.8949 16.1667 9.83512 15.7277 9.05372 14.9463C8.27232 14.1649 7.83333 13.1051 7.83333 12C7.83333 10.8949 8.27232 9.83512 9.05372 9.05372C9.83512 8.27232 10.8949 7.83333 12 7.83333C13.1051 7.83333 14.1649 8.27232 14.9463 9.05372C15.7277 9.83512 16.1667 10.8949 16.1667 12Z" stroke="" stroke-width="1.5" stroke-linecap="round" stroke-linejoin="round"/>
</svg>
