<svg width="24" height="24" viewBox="0 0 24 24" fill="none" xmlns="http://www.w3.org/2000/svg">
<path fill-rule="evenodd" clip-rule="evenodd" d="M6 3C6.41421 3 6.75 3.33579 6.75 3.75V12.8787C7.06343 12.9895 7.35144 13.1695 7.59099 13.409C8.01295 13.831 8.25 14.4033 8.25 15C8.25 15.5967 8.01295 16.169 7.59099 16.591C7.35144 16.8305 7.06343 17.0105 6.75 17.1213V20.25C6.75 20.6642 6.41421 21 6 21C5.58579 21 5.25 20.6642 5.25 20.25V17.1213C4.93657 17.0105 4.64856 16.8305 4.40901 16.591C3.98705 16.169 3.75 15.5967 3.75 15C3.75 14.4033 3.98705 13.831 4.40901 13.409C4.64856 13.1695 4.93657 12.9895 5.25 12.8787V3.75C5.25 3.33579 5.58579 3 6 3ZM12 3C12.4142 3 12.75 3.33579 12.75 3.75V6.87868C13.0634 6.9895 13.3514 7.16946 13.591 7.40901C14.0129 7.83097 14.25 8.40326 14.25 9C14.25 9.59674 14.0129 10.169 13.591 10.591C13.3514 10.8305 13.0634 11.0105 12.75 11.1213V20.25C12.75 20.6642 12.4142 21 12 21C11.5858 21 11.25 20.6642 11.25 20.25V11.1213C10.9366 11.0105 10.6486 10.8305 10.409 10.591C9.98705 10.169 9.75 9.59674 9.75 9C9.75 8.40326 9.98705 7.83097 10.409 7.40901C10.6486 7.16946 10.9366 6.9895 11.25 6.87868V3.75C11.25 3.33579 11.5858 3 12 3ZM18 3C18.4142 3 18.75 3.33579 18.75 3.75V12.8787C19.0634 12.9895 19.3514 13.1695 19.591 13.409C20.0129 13.831 20.25 14.4033 20.25 15C20.25 15.5967 20.0129 16.169 19.591 16.591C19.3514 16.8305 19.0634 17.0105 18.75 17.1213V20.25C18.75 20.6642 18.4142 21 18 21C17.5858 21 17.25 20.6642 17.25 20.25V17.1213C16.9366 17.0105 16.6486 16.8305 16.409 16.591C15.9871 16.169 15.75 15.5967 15.75 15C15.75 14.4033 15.9871 13.831 16.409 13.409C16.6486 13.1695 16.9366 12.9895 17.25 12.8787V3.75C17.25 3.33579 17.5858 3 18 3ZM12 8.25C11.8011 8.25 11.6103 8.32902 11.4697 8.46967C11.329 8.61032 11.25 8.80109 11.25 9C11.25 9.19891 11.329 9.38968 11.4697 9.53033C11.6103 9.67098 11.8011 9.75 12 9.75C12.1989 9.75 12.3897 9.67098 12.5303 9.53033C12.671 9.38968 12.75 9.19891 12.75 9C12.75 8.80109 12.671 8.61032 12.5303 8.46967C12.3897 8.32902 12.1989 8.25 12 8.25ZM6 14.25C5.80109 14.25 5.61032 14.329 5.46967 14.4697C5.32902 14.6103 5.25 14.8011 5.25 15C5.25 15.1989 5.32902 15.3897 5.46967 15.5303C5.61032 15.671 5.80109 15.75 6 15.75C6.19891 15.75 6.38968 15.671 6.53033 15.5303C6.67098 15.3897 6.75 15.1989 6.75 15C6.75 14.8011 6.67098 14.6103 6.53033 14.4697C6.38968 14.329 6.19891 14.25 6 14.25ZM18 14.25C17.8011 14.25 17.6103 14.329 17.4697 14.4697C17.329 14.6103 17.25 14.8011 17.25 15C17.25 15.1989 17.329 15.3897 17.4697 15.5303C17.6103 15.671 17.8011 15.75 18 15.75C18.1989 15.75 18.3897 15.671 18.5303 15.5303C18.671 15.3897 18.75 15.1989 18.75 15C18.75 14.8011 18.671 14.6103 18.5303 14.4697C18.3897 14.329 18.1989 14.25 18 14.25Z" fill="none"/>
</svg>
