<svg width="35" height="24" viewBox="0 0 35 24" fill="none" xmlns="http://www.w3.org/2000/svg">
<rect x="1" y="0.5" width="33.5" height="23" rx="5.5" fill="#F7F7F8"/>
<rect x="1" y="0.5" width="33.5" height="23" rx="5.5" stroke="#F0EFF1"/>
<path fill-rule="evenodd" clip-rule="evenodd" d="M11.2505 15.8581H9.1908L7.64625 9.79223C7.57294 9.5132 7.41728 9.26652 7.18831 9.15026C6.61688 8.85808 5.98721 8.62556 5.30029 8.50829V8.27475H8.61837C9.07632 8.27475 9.41977 8.62556 9.47702 9.03298L10.2784 13.4085L12.3372 8.27475H14.3397L11.2505 15.8581ZM15.4845 15.8581H13.5393L15.1411 8.27475H17.0863L15.4845 15.8581ZM19.603 10.3756C19.6602 9.96713 20.0037 9.7336 20.4044 9.7336C21.0341 9.67496 21.72 9.79223 22.2924 10.0834L22.6359 8.45066C22.0634 8.21713 21.4338 8.09985 20.8623 8.09985C18.9743 8.09985 17.6005 9.15026 17.6005 10.6081C17.6005 11.7171 18.5736 12.2995 19.2605 12.6503C20.0037 13.0001 20.2899 13.2336 20.2327 13.5834C20.2327 14.1081 19.6602 14.3416 19.0888 14.3416C18.4019 14.3416 17.715 14.1667 17.0863 13.8746L16.7429 15.5083C17.4298 15.7995 18.1729 15.9167 18.8598 15.9167C20.9768 15.9744 22.2924 14.925 22.2924 13.3499C22.2924 11.3663 19.603 11.2501 19.603 10.3756ZM29.1005 15.8583L27.5559 8.2749H25.8969C25.5534 8.2749 25.21 8.50844 25.0955 8.85824L22.2354 15.8583H24.2379L24.6375 14.7502H27.098L27.327 15.8583H29.1005ZM26.1829 10.3169L26.7543 13.175H25.1525L26.1829 10.3169Z" fill="#172B85"/>
</svg>
