<svg version="1.1" id="Layer_1" xmlns="http://www.w3.org/2000/svg" xmlns:xlink="http://www.w3.org/1999/xlink" x="0px" y="0px" style="enable-background:new 0 0 1920 1080;" xml:space="preserve" viewBox="698 297.85 524 484.32">
<style type="text/css">
	.st0{fill:#87F5DD;}
	.st1{fill:#541F5C;}
</style>
<g>
	<path class="st0" d="M906.96,474.9c5.51-16.56,12.01-29.56,19.51-39.02c7.49-9.46,16.62-16.08,27.41-19.91   c10.78-3.81,23.65-5.55,38.62-5.21c15.39,0.35,27.76,2.14,37.1,5.34c9.33,3.21,16.05,8.71,20.16,16.51   c4.09,7.79,5.98,19.18,5.63,34.14c-0.21,8.98-1.34,20.94-3.39,35.86c-0.74,5.34-1.55,10.78-2.39,16.28l125.6,4.03   c0.34-2.61,0.69-5.21,1-7.83c2.12-17.92,3.34-33.51,3.64-46.76c0.8-34.64-2.95-62.85-11.21-84.65   c-8.27-21.79-19.97-38.74-35.09-50.86c-15.12-12.11-33.01-20.54-53.65-25.3c-20.65-4.75-43.15-7.41-67.52-7.97   c-36.35-0.83-67.98,2.19-94.86,9.05c-26.9,6.87-50.06,18.64-69.48,35.3c-19.43,16.67-35.56,39.29-48.41,67.88   c-11.91,26.49-21.64,59.26-29.23,98.14l126.27,4.05C899.87,498.98,903.29,485.92,906.96,474.9z"/>
	<path class="st0" d="M1096.38,518.82c-1.52,9.88-3.21,20-5.1,30.4c-3.47,20.46-7.62,38.33-12.46,53.62   c-4.84,15.29-10.91,27.99-18.2,38.09c-7.29,10.1-16.45,17.59-27.47,22.47c-11.02,4.88-24.45,7.14-40.26,6.78   c-15.82-0.36-28.62-2.26-38.37-5.69c-9.77-3.43-16.7-8.94-20.8-16.52c-4.11-7.57-6.01-17.79-5.71-30.61   c0.2-8.55,1.31-20.07,3.36-34.58c2.04-14.49,4.53-29.42,7.45-44.75c1.49-8.55,3.04-16.56,4.64-24.1l-126.27-4.05   c-0.6,3.08-1.22,6.12-1.79,9.28c-3.39,17.04-6.15,34.62-8.27,52.75c-2.13,18.14-3.36,34.48-3.69,49.01   c-0.75,32.5,2.81,59.1,10.68,79.82c7.87,20.72,19.37,36.92,34.5,48.6c15.13,11.69,33.12,19.91,53.98,24.66   c20.85,4.75,43.68,7.42,68.48,7.99c36.34,0.83,68.06-1.55,95.14-7.12c27.08-5.57,50.2-16.06,69.39-31.46   c19.17-15.38,35.19-37.27,48.03-65.64c12.84-28.36,23.2-64.93,31.07-109.67c2.89-14.91,5.3-30,7.28-45.25L1096.38,518.82z"/>
</g>
<g>
	<path class="st1" d="M834.57,473.34c5.51-16.56,12.01-29.56,19.51-39.02c7.49-9.46,16.62-16.08,27.41-19.91   c10.78-3.81,23.65-5.55,38.62-5.21c15.39,0.35,27.76,2.14,37.1,5.34c9.33,3.21,16.05,8.71,20.16,16.51   c4.09,7.79,5.98,19.18,5.63,34.14c-0.21,8.98-1.34,20.94-3.39,35.86c-0.74,5.34-1.55,10.78-2.39,16.28l125.6,4.03   c0.34-2.61,0.69-5.21,1-7.83c2.12-17.92,3.34-33.51,3.64-46.76c0.8-34.64-2.95-62.85-11.21-84.65   c-8.27-21.79-19.97-38.74-35.09-50.86c-15.12-12.11-33.01-20.54-53.65-25.3c-20.65-4.75-43.15-7.41-67.52-7.97   c-36.35-0.83-67.98,2.19-94.86,9.05c-26.9,6.87-50.06,18.64-69.48,35.3c-19.43,16.67-35.56,39.29-48.41,67.88   c-11.91,26.49-21.64,59.26-29.23,98.14l126.27,4.05C827.48,497.42,830.9,484.36,834.57,473.34z"/>
	<path class="st1" d="M1023.99,517.25c-1.52,9.88-3.21,20-5.1,30.4c-3.47,20.46-7.62,38.33-12.46,53.62   c-4.84,15.29-10.91,27.99-18.2,38.09c-7.29,10.1-16.45,17.59-27.47,22.47c-11.02,4.88-24.45,7.14-40.26,6.78   c-15.82-0.36-28.62-2.26-38.37-5.69c-9.77-3.43-16.7-8.94-20.8-16.52c-4.11-7.57-6.01-17.79-5.71-30.61   c0.2-8.55,1.31-20.07,3.36-34.58c2.04-14.49,4.53-29.42,7.45-44.75c1.49-8.55,3.04-16.56,4.64-24.1l-126.27-4.05   c-0.6,3.08-1.22,6.12-1.79,9.28c-3.39,17.04-6.15,34.62-8.27,52.75c-2.13,18.14-3.36,34.48-3.69,49.01   c-0.75,32.5,2.81,59.1,10.68,79.82c7.87,20.72,19.37,36.92,34.5,48.6c15.13,11.69,33.12,19.91,53.98,24.66   c20.85,4.75,43.68,7.42,68.48,7.99c36.34,0.83,68.06-1.55,95.14-7.12c27.08-5.57,50.2-16.06,69.39-31.46   c19.17-15.38,35.19-37.27,48.03-65.64c12.84-28.36,23.2-64.93,31.07-109.67c2.89-14.91,5.3-30,7.28-45.25L1023.99,517.25z"/>
</g>
<path d="M876.93,473.34c5.51-16.56,12.01-29.56,19.51-39.02c7.49-9.46,16.62-16.08,27.41-19.91c10.78-3.81,23.65-5.55,38.62-5.21  c15.39,0.35,27.76,2.14,37.1,5.34c9.33,3.21,16.05,8.71,20.16,16.51c4.09,7.79,5.98,19.18,5.63,34.14  c-0.21,8.98-1.34,20.94-3.39,35.86c-0.74,5.34-1.55,10.78-2.39,16.28l125.6,4.03c0.34-2.61,0.69-5.21,1-7.83  c2.12-17.92,3.34-33.51,3.64-46.76c0.8-34.64-2.95-62.85-11.21-84.65c-8.27-21.79-19.97-38.74-35.09-50.86  c-15.12-12.11-33.01-20.54-53.65-25.3c-20.65-4.75-43.15-7.41-67.52-7.97c-36.35-0.83-67.98,2.19-94.86,9.05  c-26.9,6.87-50.06,18.64-69.48,35.3c-19.43,16.67-35.56,39.29-48.41,67.88c-11.91,26.49-21.64,59.26-29.23,98.14l126.27,4.05  C869.84,497.42,873.27,484.36,876.93,473.34z"/>
<path d="M1059.66,517.25c-1.52,9.88-3.21,20-5.1,30.4c-3.47,20.46-7.62,38.33-12.46,53.62c-4.84,15.29-10.91,27.99-18.2,38.09  c-7.29,10.1-16.45,17.59-27.47,22.47c-11.02,4.88-24.45,7.14-40.26,6.78c-15.82-0.36-28.62-2.26-38.37-5.69  c-9.77-3.43-16.7-8.94-20.8-16.52c-4.11-7.57-6.01-17.79-5.71-30.61c0.2-8.55,1.31-20.07,3.36-34.58  c2.04-14.49,4.53-29.42,7.45-44.75c1.49-8.55,3.04-16.56,4.64-24.1l-126.27-4.05c-0.6,3.08-1.22,6.12-1.79,9.28  c-3.39,17.04-6.15,34.62-8.27,52.75c-2.13,18.14-3.36,34.48-3.69,49.01c-0.75,32.5,2.81,59.1,10.68,79.82  c7.87,20.72,19.37,36.92,34.5,48.6c15.13,11.69,33.12,19.91,53.98,24.66c20.85,4.75,43.68,7.42,68.48,7.99  c36.34,0.83,68.06-1.55,95.14-7.12c27.08-5.57,50.2-16.06,69.39-31.46c19.17-15.38,35.19-37.27,48.03-65.64  c12.84-28.36,23.2-64.93,31.07-109.67c2.89-14.91,5.3-30,7.28-45.25L1059.66,517.25z"/>
</svg>